<svg width="24" height="24" viewBox="0 0 24 24" fill="none" xmlns="http://www.w3.org/2000/svg">
<path fill-rule="evenodd" clip-rule="evenodd" d="M1.25 8C1.25 7.03348 2.03351 6.25 3 6.25H6.5C6.91421 6.25 7.25 6.58579 7.25 7C7.25 7.41421 6.91421 7.75 6.5 7.75H3C2.86192 7.75 2.75 7.86192 2.75 8V16C2.75 16.1381 2.86192 16.25 3 16.25H6.5C6.91421 16.25 7.25 16.5858 7.25 17C7.25 17.4142 6.91421 17.75 6.5 17.75H3C2.03351 17.75 1.25 16.9665 1.25 16V8Z" fill="#FFFFFF"/>
<path fill-rule="evenodd" clip-rule="evenodd" d="M14.75 7C14.75 6.58579 15.0858 6.25 15.5 6.25H19C19.9665 6.25 20.75 7.03349 20.75 8V16C20.75 16.9665 19.9665 17.75 19 17.75H15.5C15.0858 17.75 14.75 17.4142 14.75 17C14.75 16.5858 15.0858 16.25 15.5 16.25H19C19.1381 16.25 19.25 16.1381 19.25 16V8C19.25 7.86191 19.1381 7.75 19 7.75H15.5C15.0858 7.75 14.75 7.41421 14.75 7Z" fill="#FFFFFF"/>
<path fill-rule="evenodd" clip-rule="evenodd" d="M11.3365 6.32914C11.7069 6.51442 11.8571 6.96494 11.6718 7.33541L9.71368 11.2505H13.502C13.762 11.2505 14.0034 11.3852 14.1401 11.6063C14.2767 11.8275 14.2891 12.1037 14.1727 12.3362L11.6707 17.3356C11.4853 17.706 11.0348 17.856 10.6643 17.6706C10.2939 17.4852 10.1439 17.0347 10.3293 16.6643L12.288 12.7505H8.5C8.24005 12.7505 7.99864 12.6159 7.86199 12.3948C7.72534 12.1736 7.71294 11.8975 7.82922 11.665L10.3302 6.66443C10.5155 6.29397 10.966 6.14385 11.3365 6.32914Z" fill="#FFFFFF"/>
<path d="M21 10H22C22.5523 10 23 10.4477 23 11V13C23 13.5523 22.5523 14 22 14H21V10Z" fill="#FFFFFF"/>
</svg>
