<svg width="24" height="24" viewBox="0 0 24 24" fill="none" xmlns="http://www.w3.org/2000/svg">
<path fill-rule="evenodd" clip-rule="evenodd" d="M12 2.75C10.7574 2.75 9.75 3.75736 9.75 5C9.75 6.24264 10.7574 7.25 12 7.25C13.2426 7.25 14.25 6.24264 14.25 5C14.25 3.75736 13.2426 2.75 12 2.75ZM8.25 5C8.25 2.92893 9.92893 1.25 12 1.25C14.0711 1.25 15.75 2.92893 15.75 5C15.75 7.07107 14.0711 8.75 12 8.75C9.92893 8.75 8.25 7.07107 8.25 5Z" fill="#FFFFFF"/>
<path fill-rule="evenodd" clip-rule="evenodd" d="M8.91463 8.07918C9.70708 7.68295 10.8301 7.25 12 7.25C13.17 7.25 14.293 7.68295 15.0855 8.07918C15.4894 8.28117 15.8256 8.48286 16.0619 8.63474C16.1803 8.71087 16.2744 8.77501 16.3403 8.82112C16.3733 8.84419 16.3992 8.86279 16.4176 8.87618L16.4396 8.89227L16.4463 8.89721L16.4485 8.89888L16.4494 8.89951C16.4495 8.89963 16.45 8.9 16 9.5L16.4494 8.89951C16.5762 8.99461 16.6703 9.12794 16.7169 9.27944L18.7169 15.7794C18.8183 16.1092 18.6818 16.4656 18.3859 16.6431L16.25 17.9246V22C16.25 22.4142 15.9143 22.75 15.5 22.75C15.0858 22.75 14.75 22.4142 14.75 22V17.5C14.75 17.2366 14.8883 16.9924 15.1142 16.8569L17.1105 15.6591L15.3592 9.96748C15.3267 9.94586 15.2905 9.92208 15.2507 9.89651C15.0495 9.76714 14.7606 9.59383 14.4146 9.42082C13.7071 9.06705 12.8301 8.75 12 8.75C11.17 8.75 10.293 9.06705 9.58545 9.42082C9.23944 9.59383 8.95059 9.76714 8.74936 9.89651C8.70633 9.92417 8.66745 9.94973 8.63303 9.97273L6.87693 15.241L8.96856 16.9143C9.14647 17.0567 9.25004 17.2722 9.25004 17.5V22C9.25004 22.4142 8.91425 22.75 8.50004 22.75C8.08583 22.75 7.75004 22.4142 7.75004 22V17.8605L5.53152 16.0857C5.28615 15.8894 5.18916 15.5609 5.28853 15.2628L7.28853 9.26283C7.33677 9.1181 7.428 8.99153 7.55004 8.9L8.00004 9.5C7.55004 8.9 7.54988 8.90012 7.55004 8.9L7.55154 8.89888L7.55378 8.89721L7.56045 8.89227L7.58244 8.87618C7.60088 8.86279 7.62683 8.84419 7.65979 8.82112C7.72566 8.77501 7.81979 8.71087 7.93822 8.63474C8.17449 8.48286 8.51064 8.28117 8.91463 8.07918Z" fill="#FFFFFF"/>
</svg>
