<svg width="24" height="24" viewBox="0 0 24 24" fill="none" xmlns="http://www.w3.org/2000/svg">
<path d="M8.80096 22.2199C8.92239 22.6159 9.34186 22.8385 9.73788 22.7171C10.1339 22.5957 10.3565 22.1762 10.235 21.7802L8.80096 22.2199ZM7.30055 18.4266L7.76683 17.8392L7.76682 17.8391L7.30055 18.4266ZM2.59229 16.7674L1.98273 17.2044L1.98274 17.2044L2.59229 16.7674ZM3.72117 12.0045L3.02345 11.7294L3.02344 11.7294L3.72117 12.0045ZM2.02388 9.84789L1.43356 9.38527L1.43353 9.3853L2.02388 9.84789ZM5.82835 7.69004L6.16805 8.3587C6.37848 8.25179 6.52631 8.05206 6.56708 7.81958L5.82835 7.69004ZM14.8721 18.7764L14.7316 18.0397C14.5374 18.0767 14.3657 18.1889 14.2538 18.3519L14.8721 18.7764ZM15.9369 22.5039C16.2152 22.8107 16.6895 22.8338 16.9963 22.5555C17.3031 22.2773 17.3262 21.8029 17.0479 21.4961L15.9369 22.5039ZM9.74985 7.24999L9.03144 7.03462C9.02864 7.04395 9.02603 7.05333 9.0236 7.06277L9.74985 7.24999ZM10.0415 9.91924L10.5673 9.38449L10.5673 9.38446L10.0415 9.91924ZM12.7056 10.9244L13.4445 11.0532C13.4797 10.8511 13.4306 10.6435 13.3087 10.4786C13.1868 10.3137 13.0026 10.2059 12.7991 10.1803L12.7056 10.9244ZM13.7471 13.2246L13.6702 12.4786H13.6702L13.7471 13.2246ZM15.512 12.0041L15.7149 11.2821C15.5229 11.2282 15.3174 11.2529 15.1437 11.3508C14.97 11.4487 14.8424 11.6117 14.7892 11.8039L15.512 12.0041ZM17.9999 10.9244L17.2545 10.8411L17.2545 10.8412L17.9999 10.9244ZM11.4716 5.99999L11.6144 6.73627L11.6144 6.73627L11.4716 5.99999ZM15.6455 13.3873C15.9975 13.1689 16.1058 12.7066 15.8874 12.3546C15.669 12.0026 15.2066 11.8944 14.8547 12.1128L15.6455 13.3873ZM13.7501 14L13.1405 13.5631L13.1405 13.5631L13.7501 14ZM11.554 16.1578C11.4732 16.564 11.737 16.9589 12.1432 17.0397C12.5495 17.1205 12.9443 16.8567 13.0251 16.4504L11.554 16.1578ZM10.235 21.7802C9.71484 20.0837 8.90707 18.7442 7.76683 17.8392L6.83427 19.014C7.67073 19.678 8.34126 20.7208 8.80096 22.2199L10.235 21.7802ZM7.76682 17.8391C6.83252 17.0976 5.64474 16.9763 4.81443 16.8673C4.36162 16.8078 4.00942 16.7557 3.7209 16.6608C3.44702 16.5707 3.29623 16.4621 3.20184 16.3305L1.98274 17.2044C2.32341 17.6796 2.79337 17.9348 3.25221 18.0857C3.69642 18.2318 4.18892 18.298 4.61909 18.3545C5.55474 18.4774 6.28603 18.5789 6.83428 19.014L7.76682 17.8391ZM3.20185 16.3305C3.11457 16.2087 3.05961 16.0296 3.07718 15.7421C3.09517 15.4476 3.18697 15.0929 3.33844 14.6867C3.48848 14.2844 3.68163 13.871 3.87969 13.4578C4.07053 13.0596 4.27651 12.6407 4.4189 12.2796L3.02344 11.7294C2.9062 12.0268 2.7325 12.3808 2.52703 12.8095C2.32879 13.2231 2.10903 13.6906 1.93299 14.1626C1.75838 14.6308 1.61093 15.144 1.57997 15.6506C1.54859 16.1642 1.63495 16.7193 1.98273 17.2044L3.20185 16.3305ZM4.4189 12.2796C4.64841 11.6975 4.53689 11.1638 4.2564 10.7463C4.00699 10.375 3.6382 10.1131 3.35412 9.93606C3.20491 9.84305 3.05674 9.76028 2.9334 9.69174C2.80173 9.61857 2.70919 9.56737 2.63746 9.52231C2.54722 9.46562 2.57785 9.47126 2.62696 9.53467C2.65771 9.57437 2.73235 9.68353 2.74741 9.85279C2.76455 10.0453 2.69565 10.2066 2.61423 10.3105L1.43353 9.3853C1.31549 9.53594 1.23187 9.74463 1.25332 9.98572C1.27269 10.2035 1.37071 10.3623 1.44102 10.4531C1.56926 10.6187 1.74383 10.7324 1.83954 10.7925C1.95376 10.8642 2.08921 10.9387 2.20475 11.0029C2.32863 11.0717 2.44692 11.1381 2.56064 11.209C2.80241 11.3597 2.94534 11.4846 3.01127 11.5827C3.04611 11.6346 3.05356 11.653 3.02345 11.7294L4.4189 12.2796ZM2.61421 10.3105C2.57704 10.3579 2.5905 10.3273 2.78545 10.1983C2.94783 10.0908 3.18106 9.94994 3.49151 9.77385C4.11071 9.42265 5.0011 8.95155 6.16805 8.3587L5.48865 7.02138C4.31461 7.61783 3.40042 8.10104 2.75147 8.46912C2.42785 8.65267 2.16111 8.81271 1.95761 8.94738C1.78669 9.0605 1.56838 9.21322 1.43356 9.38527L2.61421 10.3105ZM6.56708 7.81958C6.87547 6.06085 7.58128 4.82442 8.6282 4.01624C9.68447 3.20083 11.1802 2.75006 13.1991 2.75006V1.25006C10.9693 1.25006 9.11224 1.74762 7.71159 2.82887C6.30159 3.91735 5.44638 5.52591 5.08962 7.56051L6.56708 7.81958ZM13.1991 2.75006C16.1439 2.75006 18.1315 3.98595 19.4004 5.59545C20.6904 7.23161 21.25 9.27402 21.25 10.8395H22.75C22.75 8.96851 22.0956 6.5912 20.5784 4.66676C19.0401 2.71566 16.6272 1.25006 13.1991 1.25006V2.75006ZM21.25 10.8395C21.25 13.8879 18.5942 17.3034 14.7316 18.0397L15.0125 19.5131C19.5259 18.6529 22.75 14.6641 22.75 10.8395H21.25ZM14.2538 18.3519C13.8166 18.9885 14.0342 19.7474 14.3262 20.3282C14.6418 20.9562 15.1941 21.6851 15.9369 22.5039L17.0479 21.4961C16.336 20.7113 15.8909 20.1011 15.6664 19.6545C15.4182 19.1608 15.553 19.1097 15.4903 19.2009L14.2538 18.3519ZM9.0236 7.06277C8.68313 8.38345 8.68967 9.64187 9.5156 10.454L10.5673 9.38446C10.3511 9.17191 10.1633 8.65073 10.4761 7.43721L9.0236 7.06277ZM9.51558 10.454C10.2127 11.1395 11.3008 11.5038 12.6121 11.6686L12.7991 10.1803C11.6003 10.0296 10.9123 9.72378 10.5673 9.38449L9.51558 10.454ZM11.9667 10.7957C11.8194 11.6411 11.7973 12.4342 12.0692 13.0346C12.2168 13.3606 12.4551 13.6373 12.7948 13.8079C13.1237 13.9731 13.4824 14.0059 13.824 13.9707L13.6702 12.4786C13.5223 12.4938 13.4704 12.4687 13.4678 12.4674C13.4666 12.4668 13.4666 12.467 13.4645 12.4647C13.4616 12.4616 13.4503 12.4483 13.4357 12.4159C13.3603 12.2496 13.307 11.8421 13.4445 11.0532L11.9667 10.7957ZM13.824 13.9707C14.3942 13.9119 14.9195 13.7579 15.3492 13.4607C15.7931 13.1537 16.0908 12.7238 16.2347 12.2044L14.7892 11.8039C14.7356 11.9973 14.6404 12.1271 14.496 12.227C14.3375 12.3366 14.0791 12.4365 13.6702 12.4786L13.824 13.9707ZM15.309 12.7262C16.1272 12.9561 16.9254 13.0289 17.5801 12.7448C18.3119 12.4272 18.6608 11.7632 18.7452 11.0077L17.2545 10.8412C17.2104 11.2355 17.0805 11.3264 16.983 11.3687C16.8083 11.4445 16.4269 11.4822 15.7149 11.2821L15.309 12.7262ZM18.7452 11.0077C18.8586 9.99326 18.6429 9.08187 18.3378 8.41518C18.1858 8.08314 18.0023 7.79127 17.806 7.56903C17.7085 7.4587 17.5935 7.34936 17.4624 7.262C17.3438 7.18304 17.1401 7.07374 16.8812 7.07374V8.57374C16.7937 8.57374 16.7286 8.55447 16.693 8.54097C16.6567 8.52721 16.6358 8.51375 16.6309 8.51046C16.6228 8.50509 16.6417 8.51671 16.682 8.56232C16.7612 8.65197 16.8697 8.81186 16.9738 9.0394C17.1809 9.49186 17.3339 10.1308 17.2545 10.8411L18.7452 11.0077ZM16.8812 7.07374C16.7047 7.07374 16.442 7.06128 16.2444 7.0093C16.1429 6.98259 16.1215 6.96111 16.1395 6.97545C16.1536 6.98665 16.1867 7.01684 16.216 7.07148C16.2473 7.12984 16.262 7.1934 16.262 7.24999H14.762C14.762 7.65614 14.9671 7.95927 15.205 8.14878C15.4202 8.32014 15.6696 8.40913 15.8627 8.45994C16.2545 8.563 16.6763 8.57374 16.8812 8.57374V7.07374ZM16.262 7.24999C16.262 6.81404 16.0166 6.5037 15.791 6.31868C15.5685 6.13614 15.297 6.01356 15.0432 5.92846C14.5291 5.75603 13.896 5.67464 13.3165 5.67464V7.17464C13.7784 7.17464 14.2431 7.24222 14.5663 7.35062C14.7312 7.40593 14.8133 7.45673 14.8397 7.47839C14.8631 7.49756 14.762 7.42224 14.762 7.24999H16.262ZM13.3165 5.67464C13.1402 5.67464 13.121 5.64516 13.1557 5.66454C13.1688 5.67184 13.1733 5.67755 13.1609 5.66612C13.1527 5.65849 13.1433 5.64932 13.1237 5.62989C13.1071 5.61339 13.0794 5.58579 13.0491 5.55772C12.8948 5.41503 12.6785 5.26672 12.3417 5.2098C12.0525 5.16092 11.7202 5.18779 11.3288 5.26371L11.6144 6.73627C11.9381 6.67349 12.0638 6.68409 12.0918 6.68883C12.0972 6.68974 12.0804 6.68718 12.0545 6.6733C12.0303 6.66029 12.0192 6.64846 12.0305 6.65886C12.0382 6.66601 12.0471 6.6747 12.0673 6.69475C12.0845 6.71187 12.1123 6.73952 12.1433 6.76815C12.2095 6.82924 12.301 6.90524 12.4241 6.97402C12.6789 7.11637 12.9719 7.17464 13.3165 7.17464V5.67464ZM11.3288 5.26371C10.2357 5.47569 9.33876 6.00951 9.03144 7.03462L10.4683 7.46536C10.5497 7.19357 10.8006 6.89409 11.6144 6.73627L11.3288 5.26371ZM14.8547 12.1128C14.5761 12.2856 14.249 12.5134 13.9484 12.7561C13.6588 12.99 13.3475 13.2744 13.1405 13.5631L14.3597 14.437C14.4465 14.3158 14.6309 14.133 14.8908 13.9232C15.1396 13.7223 15.4156 13.53 15.6455 13.3873L14.8547 12.1128ZM13.1405 13.5631C12.9634 13.8103 12.794 14.0341 12.6325 14.2474C12.4735 14.4574 12.3173 14.6634 12.1795 14.8596C11.9108 15.2423 11.6512 15.669 11.554 16.1578L13.0251 16.4504C13.0583 16.2839 13.1617 16.0709 13.4071 15.7216C13.5263 15.5518 13.6649 15.3687 13.8283 15.153C13.9891 14.9406 14.1696 14.7022 14.3597 14.4369L13.1405 13.5631Z" fill="#FFFFFF"/>
</svg>
