<svg width="24" height="24" viewBox="0 0 24 24" fill="none" xmlns="http://www.w3.org/2000/svg">
<path fill-rule="evenodd" clip-rule="evenodd" d="M20 10.75C19.3096 10.75 18.75 11.3096 18.75 12C18.75 12.6904 19.3096 13.25 20 13.25C20.6904 13.25 21.25 12.6904 21.25 12C21.25 11.3096 20.6904 10.75 20 10.75ZM17.25 12C17.25 10.4812 18.4812 9.25 20 9.25C21.5188 9.25 22.75 10.4812 22.75 12C22.75 13.5188 21.5188 14.75 20 14.75C18.4812 14.75 17.25 13.5188 17.25 12Z" fill="#FFFFFF"/>
<path fill-rule="evenodd" clip-rule="evenodd" d="M4.5 2.75C3.80964 2.75 3.25 3.30964 3.25 4C3.25 4.69036 3.80964 5.25 4.5 5.25C5.19036 5.25 5.75 4.69036 5.75 4C5.75 3.30964 5.19036 2.75 4.5 2.75ZM1.75 4C1.75 2.48122 2.98122 1.25 4.5 1.25C6.01878 1.25 7.25 2.48122 7.25 4C7.25 5.51878 6.01878 6.75 4.5 6.75C2.98122 6.75 1.75 5.51878 1.75 4Z" fill="#FFFFFF"/>
<path fill-rule="evenodd" clip-rule="evenodd" d="M4.5 18.75C3.80964 18.75 3.25 19.3096 3.25 20C3.25 20.6904 3.80964 21.25 4.5 21.25C5.19036 21.25 5.75 20.6904 5.75 20C5.75 19.3096 5.19036 18.75 4.5 18.75ZM1.75 20C1.75 18.4812 2.98122 17.25 4.5 17.25C6.01878 17.25 7.25 18.4812 7.25 20C7.25 21.5188 6.01878 22.75 4.5 22.75C2.98122 22.75 1.75 21.5188 1.75 20Z" fill="#FFFFFF"/>
<path fill-rule="evenodd" clip-rule="evenodd" d="M4.5 5.25C4.91421 5.25 5.25 5.58579 5.25 6V11.2542H18C18.4142 11.2542 18.75 11.59 18.75 12.0042C18.75 12.4184 18.4142 12.7542 18 12.7542H5.25V18C5.25 18.4142 4.91421 18.75 4.5 18.75C4.08579 18.75 3.75 18.4142 3.75 18V6C3.75 5.58579 4.08579 5.25 4.5 5.25Z" fill="#FFFFFF"/>
</svg>
