<svg width="24" height="24" viewBox="0 0 24 24" fill="none" xmlns="http://www.w3.org/2000/svg">
<path fill-rule="evenodd" clip-rule="evenodd" d="M1.25 22C1.25 21.5858 1.58579 21.25 2 21.25H22C22.4142 21.25 22.75 21.5858 22.75 22C22.75 22.4142 22.4142 22.75 22 22.75H2C1.58579 22.75 1.25 22.4142 1.25 22Z" fill="#FFFFFF"/>
<path fill-rule="evenodd" clip-rule="evenodd" d="M5.75 7C5.75 6.58579 6.08579 6.25 6.5 6.25H17.5C17.9142 6.25 18.25 6.58579 18.25 7C18.25 7.41421 17.9142 7.75 17.5 7.75H6.5C6.08579 7.75 5.75 7.41421 5.75 7Z" fill="#FFFFFF"/>
<path fill-rule="evenodd" clip-rule="evenodd" d="M7.25658 6.90088C7.30626 6.52827 7.6241 6.25 8 6.25H16C16.3759 6.25 16.6937 6.52827 16.7434 6.90088L18.7434 21.9009C18.772 22.1152 18.7067 22.3314 18.5643 22.494C18.4219 22.6567 18.2162 22.75 18 22.75H6C5.78381 22.75 5.57813 22.6567 5.43572 22.494C5.2933 22.3314 5.22801 22.1152 5.25658 21.9009L7.25658 6.90088ZM8.65664 7.75L6.85664 21.25H17.1434L15.3434 7.75H8.65664Z" fill="#FFFFFF"/>
<path fill-rule="evenodd" clip-rule="evenodd" d="M6.75 12C6.75 11.5858 7.08579 11.25 7.5 11.25H16.5C16.9142 11.25 17.25 11.5858 17.25 12C17.25 12.4142 16.9142 12.75 16.5 12.75H7.5C7.08579 12.75 6.75 12.4142 6.75 12Z" fill="#FFFFFF"/>
<path fill-rule="evenodd" clip-rule="evenodd" d="M5.75 17C5.75 16.5858 6.08579 16.25 6.5 16.25H17.5C17.9142 16.25 18.25 16.5858 18.25 17C18.25 17.4142 17.9142 17.75 17.5 17.75H6.5C6.08579 17.75 5.75 17.4142 5.75 17Z" fill="#FFFFFF"/>
<path fill-rule="evenodd" clip-rule="evenodd" d="M17.2566 22.0991L15.2566 7.09912L16.7434 6.90088L18.7434 21.9009L17.2566 22.0991Z" fill="#FFFFFF"/>
<path fill-rule="evenodd" clip-rule="evenodd" d="M5.25659 21.9009L7.25659 6.90088L8.74343 7.09912L6.74343 22.0991L5.25659 21.9009Z" fill="#FFFFFF"/>
<path fill-rule="evenodd" clip-rule="evenodd" d="M16.5303 1.46966C16.8232 1.76255 16.8232 2.23742 16.5303 2.53032L16.1161 2.94454C15.6004 3.46023 14.9009 3.75 14.1715 3.75H13.8285C13.4969 3.75 13.179 3.88168 12.9445 4.11611C12.9445 4.11612 12.9446 4.1161 12.9445 4.11611L12.5303 4.53032C12.2375 4.82322 11.7626 4.82323 11.4697 4.53034C11.1768 4.23745 11.1768 3.76258 11.4697 3.46968L11.8839 3.05546C12.3996 2.53977 13.0991 2.25 13.8285 2.25H14.1715C14.5031 2.25 14.821 2.11832 15.0555 1.88389C15.0555 1.88388 15.0554 1.88391 15.0555 1.88389L15.4697 1.46968C15.7625 1.17678 16.2374 1.17677 16.5303 1.46966Z" fill="#FFFFFF"/>
</svg>
