<svg width="24" height="24" viewBox="0 0 24 24" fill="none" xmlns="http://www.w3.org/2000/svg">
<path fill-rule="evenodd" clip-rule="evenodd" d="M9.25 4C9.25 2.48121 10.4812 1.25 12 1.25C13.5188 1.25 14.75 2.48121 14.75 4C14.75 5.51876 13.5188 6.75 12 6.75C10.4812 6.75 9.25 5.51876 9.25 4ZM12 2.75C11.3097 2.75 10.75 3.30965 10.75 4C10.75 4.69034 11.3097 5.25 12 5.25C12.6903 5.25 13.25 4.69034 13.25 4C13.25 3.30965 12.6903 2.75 12 2.75Z" fill="#FFFFFF"/>
<path fill-rule="evenodd" clip-rule="evenodd" d="M9.25 12C9.25 10.4812 10.4812 9.25 12 9.25C13.5188 9.25 14.75 10.4812 14.75 12C14.75 13.5188 13.5188 14.75 12 14.75C10.4812 14.75 9.25 13.5188 9.25 12ZM12 10.75C11.3097 10.75 10.75 11.3097 10.75 12C10.75 12.6903 11.3097 13.25 12 13.25C12.6903 13.25 13.25 12.6903 13.25 12C13.25 11.3097 12.6903 10.75 12 10.75Z" fill="#FFFFFF"/>
<path fill-rule="evenodd" clip-rule="evenodd" d="M17.5532 5.61841C18.8685 4.859 20.5504 5.30967 21.3098 6.62498C22.0692 7.9403 21.6185 9.62214 20.3032 10.3815C18.9879 11.141 17.306 10.6903 16.5466 9.37498C15.7872 8.05966 16.2379 6.37782 17.5532 5.61841ZM20.0107 7.37498C19.6655 6.77709 18.9011 6.57226 18.3032 6.91745C17.7053 7.26264 17.5005 8.0271 17.8457 8.62498C18.1909 9.22287 18.9553 9.4277 19.5532 9.08251C20.1511 8.73732 20.3559 7.97286 20.0107 7.37498Z" fill="#FFFFFF"/>
<path fill-rule="evenodd" clip-rule="evenodd" d="M16.5466 14.625C17.306 13.3097 18.9879 12.859 20.3032 13.6184C21.6185 14.3778 22.0692 16.0597 21.3098 17.375C20.5504 18.6903 18.8685 19.141 17.5532 18.3815C16.2379 17.6221 15.7872 15.9403 16.5466 14.625ZM19.5532 14.9174C18.9553 14.5723 18.1909 14.7771 17.8457 15.375C17.5005 15.9729 17.7053 16.7373 18.3032 17.0825C18.9011 17.4277 19.6655 17.2229 20.0107 16.625C20.3559 16.0271 20.1511 15.2626 19.5532 14.9174Z" fill="#FFFFFF"/>
<path fill-rule="evenodd" clip-rule="evenodd" d="M9.25 20C9.25 18.4812 10.4812 17.25 12 17.25C13.5188 17.25 14.75 18.4812 14.75 20C14.75 21.5188 13.5188 22.75 12 22.75C10.4812 22.75 9.25 21.5188 9.25 20ZM12 18.75C11.3097 18.75 10.75 19.3097 10.75 20C10.75 20.6903 11.3097 21.25 12 21.25C12.6903 21.25 13.25 20.6903 13.25 20C13.25 19.3097 12.6903 18.75 12 18.75Z" fill="#FFFFFF"/>
<path fill-rule="evenodd" clip-rule="evenodd" d="M3.69675 13.6184C5.01208 12.859 6.69392 13.3097 7.45332 14.625C8.21273 15.9403 7.76207 17.6221 6.44676 18.3815C5.13144 19.141 3.44957 18.6903 2.69018 17.375C1.93079 16.0597 2.38145 14.3778 3.69674 13.6184L3.69675 13.6184ZM4.44675 14.9174C3.84888 15.2626 3.64404 16.0271 3.98922 16.625C4.3344 17.2229 5.09887 17.4277 5.69675 17.0825C6.29464 16.7373 6.49947 15.9729 6.15429 15.375C5.80909 14.7771 5.04464 14.5723 4.44676 14.9174" fill="#FFFFFF"/>
<path fill-rule="evenodd" clip-rule="evenodd" d="M2.69018 6.62498C3.44957 5.30966 5.13144 4.859 6.44676 5.61841C7.76207 6.37782 8.21273 8.05966 7.45332 9.37498C6.69392 10.6903 5.01208 11.141 3.69675 10.3815L3.69674 10.3815C2.38145 9.62214 1.93079 7.94031 2.69018 6.62498ZM5.69675 6.91745C5.09887 6.57226 4.3344 6.7771 3.98922 7.37498C3.64404 7.97285 3.84888 8.73732 4.44676 9.08252L4.07175 9.73203L4.44676 9.08252C5.04464 9.4277 5.80909 9.22287 6.15429 8.62498C6.49947 8.0271 6.29464 7.26264 5.69675 6.91745ZM4.07175 9.73203L4.07031 9.73451L4.07175 9.73203Z" fill="#FFFFFF"/>
</svg>
