<svg width="24" height="24" viewBox="0 0 24 24" fill="none" xmlns="http://www.w3.org/2000/svg">
<path fill-rule="evenodd" clip-rule="evenodd" d="M17.25 4C17.25 2.48121 18.4812 1.25 20 1.25C21.5188 1.25 22.75 2.48121 22.75 4C22.75 5.51876 21.5188 6.75 20 6.75C18.4812 6.75 17.25 5.51876 17.25 4ZM20 2.75C19.3097 2.75 18.75 3.30965 18.75 4C18.75 4.69034 19.3097 5.25 20 5.25C20.6903 5.25 21.25 4.69034 21.25 4C21.25 3.30965 20.6903 2.75 20 2.75Z" fill="#FFFFFF"/>
<path fill-rule="evenodd" clip-rule="evenodd" d="M17.25 20C17.25 18.4812 18.4812 17.25 20 17.25C21.5188 17.25 22.75 18.4812 22.75 20C22.75 21.5188 21.5188 22.75 20 22.75C18.4812 22.75 17.25 21.5188 17.25 20ZM20 18.75C19.3097 18.75 18.75 19.3097 18.75 20C18.75 20.6903 19.3097 21.25 20 21.25C20.6903 21.25 21.25 20.6903 21.25 20C21.25 19.3097 20.6903 18.75 20 18.75Z" fill="#FFFFFF"/>
<path fill-rule="evenodd" clip-rule="evenodd" d="M1.25 4C1.25 2.48122 2.48122 1.25 4 1.25C5.51876 1.25 6.75 2.48121 6.75 4C6.75 5.51876 5.51876 6.75 4 6.75C2.48121 6.75 1.25 5.51876 1.25 4ZM4 2.75C3.30964 2.75 2.75 3.30964 2.75 4C2.75 4.69034 3.30965 5.25 4 5.25C4.69034 5.25 5.25 4.69034 5.25 4C5.25 3.30965 4.69034 2.75 4 2.75Z" fill="#FFFFFF"/>
<path fill-rule="evenodd" clip-rule="evenodd" d="M1.25 20C1.25 18.4812 2.48121 17.25 4 17.25C5.51876 17.25 6.75 18.4812 6.75 20C6.75 21.5188 5.51876 22.75 4 22.75C2.48121 22.75 1.25 21.5188 1.25 20ZM4 18.75C3.30965 18.75 2.75 19.3097 2.75 20C2.75 20.6903 3.30965 21.25 4 21.25C4.69034 21.25 5.25 20.6903 5.25 20C5.25 19.3097 4.69034 18.75 4 18.75Z" fill="#FFFFFF"/>
<path fill-rule="evenodd" clip-rule="evenodd" d="M9.25 4C9.25 3.58579 9.58579 3.25 10 3.25H14C14.4142 3.25 14.75 3.58579 14.75 4C14.75 4.41421 14.4142 4.75 14 4.75H10C9.58579 4.75 9.25 4.41421 9.25 4Z" fill="#FFFFFF"/>
<path fill-rule="evenodd" clip-rule="evenodd" d="M16.5303 7.46967C16.8232 7.76256 16.8232 8.23744 16.5303 8.53033L8.53033 16.5303C8.23744 16.8232 7.76256 16.8232 7.46967 16.5303C7.17678 16.2374 7.17678 15.7626 7.46967 15.4697L15.4697 7.46967C15.7626 7.17678 16.2374 7.17678 16.5303 7.46967Z" fill="#FFFFFF"/>
<path fill-rule="evenodd" clip-rule="evenodd" d="M20 9.25C20.4142 9.25 20.75 9.58579 20.75 10V14C20.75 14.4142 20.4142 14.75 20 14.75C19.5858 14.75 19.25 14.4142 19.25 14V10C19.25 9.58579 19.5858 9.25 20 9.25Z" fill="#FFFFFF"/>
</svg>
