<svg width="24" height="24" viewBox="0 0 24 24" fill="none" xmlns="http://www.w3.org/2000/svg">
<path fill-rule="evenodd" clip-rule="evenodd" d="M8.8182 3.75C5.47954 3.75 2.75 6.50967 2.75 9.94255C2.75 11.9736 3.70697 13.7725 5.18291 14.9014C5.51192 15.153 5.57465 15.6237 5.32301 15.9527C5.07137 16.2817 4.60066 16.3445 4.27164 16.0928C2.43545 14.6885 1.25 12.4542 1.25 9.94255C1.25 5.70692 4.62566 2.25 8.8182 2.25C12.0274 2.25 14.7589 4.27711 15.8626 7.12583C16.3655 6.96504 16.9004 6.87835 17.4545 6.87835C20.3919 6.87835 22.75 9.29918 22.75 12.2568C22.75 14.4557 21.4493 16.3525 19.5776 17.1852C19.1992 17.3536 18.7559 17.1833 18.5875 16.8049C18.4191 16.4264 18.5894 15.9831 18.9679 15.8148C20.3069 15.2191 21.25 13.8537 21.25 12.2568C21.25 10.1019 19.538 8.37835 17.4545 8.37835C16.8385 8.37835 16.2583 8.52777 15.745 8.79298C15.543 8.89732 15.3046 8.90443 15.0968 8.8123C14.889 8.72018 14.7342 8.53877 14.6759 8.31906C13.9748 5.67784 11.6099 3.75 8.8182 3.75Z" fill="#FFFFFF"/>
<path fill-rule="evenodd" clip-rule="evenodd" d="M11.4958 16.3267C11.0379 16.7386 10.75 17.3357 10.75 18C10.75 19.2426 11.7574 20.25 13 20.25C13.6643 20.25 14.2614 19.9621 14.6733 19.5043C14.4859 19.5461 14.291 19.5682 14.0909 19.5682C12.6223 19.5682 11.4319 18.3776 11.4319 16.9091C11.4319 16.709 11.4539 16.5141 11.4958 16.3267ZM9.25 18C9.25 15.9289 10.9289 14.25 13 14.25C13.2593 14.25 13.5133 14.2764 13.7593 14.3271C14.1007 14.3974 14.3486 14.6938 14.3576 15.0422C14.3667 15.3907 14.1344 15.6995 13.7971 15.7874C13.2988 15.9173 12.9319 16.3713 12.9319 16.9091C12.9319 17.5493 13.4508 18.0682 14.0909 18.0682C14.6287 18.0682 15.0827 17.7012 15.2126 17.2029C15.3005 16.8656 15.6093 16.6333 15.9578 16.6424C16.3062 16.6514 16.6026 16.8993 16.6729 17.2407C16.7236 17.4867 16.75 17.7407 16.75 18C16.75 20.0711 15.0711 21.75 13 21.75C10.9289 21.75 9.25 20.0711 9.25 18Z" fill="#FFFFFF"/>
<path fill-rule="evenodd" clip-rule="evenodd" d="M5.25 10C5.25 7.92894 6.92894 6.25 9 6.25C10.0354 6.25 10.9739 6.67057 11.6517 7.34839C11.9445 7.6413 11.9445 8.11617 11.6516 8.40905C11.3587 8.70193 10.8838 8.70191 10.5909 8.40901C10.183 8.00103 9.62155 7.75 9 7.75C7.75736 7.75 6.75 8.75736 6.75 10C6.75 10.6215 7.00103 11.183 7.40901 11.5909C7.70191 11.8838 7.70193 12.3587 7.40905 12.6516C7.11617 12.9445 6.6413 12.9445 6.34839 12.6517C5.67057 11.9739 5.25 11.0354 5.25 10Z" fill="#FFFFFF"/>
</svg>
