<svg width="24" height="24" viewBox="0 0 24 24" fill="none" xmlns="http://www.w3.org/2000/svg">
<path fill-rule="evenodd" clip-rule="evenodd" d="M18.9697 16.4697C19.2626 16.1768 19.7374 16.1768 20.0303 16.4697L22.5303 18.9697C22.8232 19.2626 22.8232 19.7374 22.5303 20.0303L20.0303 22.5303C19.7374 22.8232 19.2626 22.8232 18.9697 22.5303C18.6768 22.2374 18.6768 21.7626 18.9697 21.4697L20.9393 19.5L18.9697 17.5303C18.6768 17.2374 18.6768 16.7626 18.9697 16.4697Z" fill="#FFFFFF"/>
<path fill-rule="evenodd" clip-rule="evenodd" d="M1.25 4C1.25 2.48122 2.48122 1.25 4 1.25C5.51876 1.25 6.75 2.48121 6.75 4C6.75 5.51876 5.51876 6.75 4 6.75C2.48121 6.75 1.25 5.51876 1.25 4ZM4 2.75C3.30964 2.75 2.75 3.30964 2.75 4C2.75 4.69034 3.30965 5.25 4 5.25C4.69034 5.25 5.25 4.69034 5.25 4C5.25 3.30965 4.69034 2.75 4 2.75Z" fill="#FFFFFF"/>
<path fill-rule="evenodd" clip-rule="evenodd" d="M5.25 4C5.25 3.58579 5.58579 3.25 6 3.25H10C11.5188 3.25 12.75 4.48121 12.75 6V17.5C12.75 18.1903 13.3097 18.75 14 18.75H22C22.4142 18.75 22.75 19.0858 22.75 19.5C22.75 19.9142 22.4142 20.25 22 20.25H14C12.4812 20.25 11.25 19.0188 11.25 17.5V6C11.25 5.30965 10.6903 4.75 10 4.75H6C5.58579 4.75 5.25 4.41421 5.25 4Z" fill="#FFFFFF"/>
</svg>
