<svg width="24" height="24" viewBox="0 0 24 24" fill="none" xmlns="http://www.w3.org/2000/svg">
<path fill-rule="evenodd" clip-rule="evenodd" d="M3.25 5C3.25 4.0335 4.0335 3.25 5 3.25H19C19.9665 3.25 20.75 4.03351 20.75 5V19C20.75 19.9665 19.9665 20.75 19 20.75H5C4.03351 20.75 3.25 19.9665 3.25 19V5ZM5 4.75C4.86193 4.75 4.75 4.86193 4.75 5V19C4.75 19.1381 4.86192 19.25 5 19.25H19C19.1381 19.25 19.25 19.1381 19.25 19V5C19.25 4.86192 19.1381 4.75 19 4.75H5Z" fill="#FFFFFF"/>
<path fill-rule="evenodd" clip-rule="evenodd" d="M8.25 9C8.25 8.58579 8.58579 8.25 9 8.25H15C15.4142 8.25 15.75 8.58579 15.75 9V15C15.75 15.4142 15.4142 15.75 15 15.75H9C8.58579 15.75 8.25 15.4142 8.25 15V9ZM9.75 9.75V14.25H14.25V9.75H9.75Z" fill="#FFFFFF"/>
<path fill-rule="evenodd" clip-rule="evenodd" d="M7.45459 0.25C7.8688 0.25 8.20459 0.585786 8.20459 1V4C8.20459 4.41421 7.8688 4.75 7.45459 4.75C7.04038 4.75 6.70459 4.41421 6.70459 4V1C6.70459 0.585786 7.04038 0.25 7.45459 0.25Z" fill="#FFFFFF"/>
<path fill-rule="evenodd" clip-rule="evenodd" d="M7.45459 19.25C7.8688 19.25 8.20459 19.5858 8.20459 20V23C8.20459 23.4142 7.8688 23.75 7.45459 23.75C7.04038 23.75 6.70459 23.4142 6.70459 23V20C6.70459 19.5858 7.04038 19.25 7.45459 19.25Z" fill="#FFFFFF"/>
<path fill-rule="evenodd" clip-rule="evenodd" d="M12 0.25C12.4142 0.25 12.75 0.585786 12.75 1V4C12.75 4.41421 12.4142 4.75 12 4.75C11.5858 4.75 11.25 4.41421 11.25 4V1C11.25 0.585786 11.5858 0.25 12 0.25Z" fill="#FFFFFF"/>
<path fill-rule="evenodd" clip-rule="evenodd" d="M12 19.25C12.4142 19.25 12.75 19.5858 12.75 20V23C12.75 23.4142 12.4142 23.75 12 23.75C11.5858 23.75 11.25 23.4142 11.25 23V20C11.25 19.5858 11.5858 19.25 12 19.25Z" fill="#FFFFFF"/>
<path fill-rule="evenodd" clip-rule="evenodd" d="M16.5454 0.25C16.9596 0.25 17.2954 0.585786 17.2954 1V4C17.2954 4.41421 16.9596 4.75 16.5454 4.75C16.1312 4.75 15.7954 4.41421 15.7954 4V1C15.7954 0.585786 16.1312 0.25 16.5454 0.25Z" fill="#FFFFFF"/>
<path fill-rule="evenodd" clip-rule="evenodd" d="M16.5454 19.25C16.9596 19.25 17.2954 19.5858 17.2954 20V23C17.2954 23.4142 16.9596 23.75 16.5454 23.75C16.1312 23.75 15.7954 23.4142 15.7954 23V20C15.7954 19.5858 16.1312 19.25 16.5454 19.25Z" fill="#FFFFFF"/>
<path fill-rule="evenodd" clip-rule="evenodd" d="M0.25 7.45459C0.25 7.04038 0.585786 6.70459 1 6.70459H4C4.41421 6.70459 4.75 7.04038 4.75 7.45459C4.75 7.8688 4.41421 8.20459 4 8.20459H1C0.585786 8.20459 0.25 7.8688 0.25 7.45459Z" fill="#FFFFFF"/>
<path fill-rule="evenodd" clip-rule="evenodd" d="M19.25 7.45459C19.25 7.04038 19.5858 6.70459 20 6.70459H23C23.4142 6.70459 23.75 7.04038 23.75 7.45459C23.75 7.8688 23.4142 8.20459 23 8.20459H20C19.5858 8.20459 19.25 7.8688 19.25 7.45459Z" fill="#FFFFFF"/>
<path fill-rule="evenodd" clip-rule="evenodd" d="M0.25 12C0.25 11.5858 0.585786 11.25 1 11.25H4C4.41421 11.25 4.75 11.5858 4.75 12C4.75 12.4142 4.41421 12.75 4 12.75H1C0.585786 12.75 0.25 12.4142 0.25 12Z" fill="#FFFFFF"/>
<path fill-rule="evenodd" clip-rule="evenodd" d="M19.25 12C19.25 11.5858 19.5858 11.25 20 11.25H23C23.4142 11.25 23.75 11.5858 23.75 12C23.75 12.4142 23.4142 12.75 23 12.75H20C19.5858 12.75 19.25 12.4142 19.25 12Z" fill="#FFFFFF"/>
<path fill-rule="evenodd" clip-rule="evenodd" d="M0.25 16.5454C0.25 16.1312 0.585786 15.7954 1 15.7954H4C4.41421 15.7954 4.75 16.1312 4.75 16.5454C4.75 16.9596 4.41421 17.2954 4 17.2954H1C0.585786 17.2954 0.25 16.9596 0.25 16.5454Z" fill="#FFFFFF"/>
<path fill-rule="evenodd" clip-rule="evenodd" d="M19.25 16.5454C19.25 16.1312 19.5858 15.7954 20 15.7954H23C23.4142 15.7954 23.75 16.1312 23.75 16.5454C23.75 16.9596 23.4142 17.2954 23 17.2954H20C19.5858 17.2954 19.25 16.9596 19.25 16.5454Z" fill="#FFFFFF"/>
</svg>
