<svg width="24" height="24" viewBox="0 0 24 24" fill="none" xmlns="http://www.w3.org/2000/svg">
<path fill-rule="evenodd" clip-rule="evenodd" d="M1.25 7.5C1.25 7.08579 1.58579 6.75 2 6.75H6C6.41421 6.75 6.75 7.08579 6.75 7.5C6.75 7.91421 6.41421 8.25 6 8.25H2.75V19.75H21.25V8.25H18C17.5858 8.25 17.25 7.91421 17.25 7.5C17.25 7.08579 17.5858 6.75 18 6.75H22C22.4142 6.75 22.75 7.08579 22.75 7.5V20.5C22.75 20.9142 22.4142 21.25 22 21.25H2C1.58579 21.25 1.25 20.9142 1.25 20.5V7.5Z" fill="#FFFFFF"/>
<path fill-rule="evenodd" clip-rule="evenodd" d="M12 1.75C12.4142 1.75 12.75 2.08579 12.75 2.5V9.5C12.75 9.91421 12.4142 10.25 12 10.25C11.5858 10.25 11.25 9.91421 11.25 9.5V2.5C11.25 2.08579 11.5858 1.75 12 1.75Z" fill="#FFFFFF"/>
<path fill-rule="evenodd" clip-rule="evenodd" d="M11.4697 1.96967C11.7626 1.67678 12.2374 1.67678 12.5303 1.96967L15.5303 4.96967C15.8232 5.26256 15.8232 5.73744 15.5303 6.03033C15.2374 6.32322 14.7626 6.32322 14.4697 6.03033L12 3.56066L9.53033 6.03033C9.23744 6.32322 8.76256 6.32322 8.46967 6.03033C8.17678 5.73744 8.17678 5.26256 8.46967 4.96967L11.4697 1.96967Z" fill="#FFFFFF"/>
<path fill-rule="evenodd" clip-rule="evenodd" d="M1.40004 7.05004C1.64857 6.71867 2.11867 6.65152 2.45004 6.90004L12 14.0625L21.55 6.90004C21.8814 6.65152 22.3515 6.71867 22.6 7.05004C22.8486 7.38142 22.7814 7.85152 22.45 8.10004L12.45 15.6C12.1834 15.8 11.8167 15.8 11.55 15.6L1.55004 8.10004C1.21867 7.85152 1.15152 7.38142 1.40004 7.05004Z" fill="#FFFFFF"/>
</svg>
