<svg width="24" height="24" viewBox="0 0 24 24" fill="none" xmlns="http://www.w3.org/2000/svg">
<path fill-rule="evenodd" clip-rule="evenodd" d="M8.8182 3.75C5.47954 3.75 2.75 6.50967 2.75 9.94255C2.75 11.9736 3.70697 13.7725 5.18291 14.9014C5.51192 15.153 5.57465 15.6237 5.32301 15.9527C5.07137 16.2817 4.60066 16.3445 4.27164 16.0928C2.43545 14.6885 1.25 12.4542 1.25 9.94255C1.25 5.70692 4.62566 2.25 8.8182 2.25C12.0274 2.25 14.7589 4.27711 15.8626 7.12583C16.3655 6.96504 16.9004 6.87835 17.4545 6.87835C20.3919 6.87835 22.75 9.29918 22.75 12.2568C22.75 14.4557 21.4493 16.3525 19.5776 17.1852C19.1992 17.3536 18.7559 17.1833 18.5875 16.8049C18.4191 16.4264 18.5894 15.9831 18.9679 15.8148C20.3069 15.2191 21.25 13.8537 21.25 12.2568C21.25 10.1019 19.538 8.37835 17.4545 8.37835C16.8385 8.37835 16.2583 8.52777 15.745 8.79298C15.543 8.89732 15.3046 8.90443 15.0968 8.8123C14.889 8.72018 14.7342 8.53877 14.6759 8.31906C13.9748 5.67784 11.6099 3.75 8.8182 3.75Z" fill="#FFFFFF"/>
<path fill-rule="evenodd" clip-rule="evenodd" d="M5.25 10C5.25 7.92894 6.92894 6.25 9 6.25C10.0354 6.25 10.9739 6.67057 11.6517 7.34839C11.9445 7.6413 11.9445 8.11617 11.6516 8.40905C11.3587 8.70193 10.8838 8.70191 10.5909 8.40901C10.183 8.00103 9.62155 7.75 9 7.75C7.75736 7.75 6.75 8.75736 6.75 10C6.75 10.6215 7.00103 11.183 7.40901 11.5909C7.70191 11.8838 7.70193 12.3587 7.40905 12.6516C7.11617 12.9445 6.6413 12.9445 6.34839 12.6517C5.67057 11.9739 5.25 11.0354 5.25 10Z" fill="#FFFFFF"/>
<path fill-rule="evenodd" clip-rule="evenodd" d="M9.25 17C9.25 16.5858 9.58579 16.25 10 16.25H14C14.4142 16.25 14.75 16.5858 14.75 17C14.75 17.4142 14.4142 17.75 14 17.75H10C9.58579 17.75 9.25 17.4142 9.25 17Z" fill="#FFFFFF"/>
<path fill-rule="evenodd" clip-rule="evenodd" d="M4.25 21C4.25 20.5858 4.58579 20.25 5 20.25H10C10.4142 20.25 10.75 20.5858 10.75 21C10.75 21.4142 10.4142 21.75 10 21.75H5C4.58579 21.75 4.25 21.4142 4.25 21Z" fill="#FFFFFF"/>
<path fill-rule="evenodd" clip-rule="evenodd" d="M13.25 21C13.25 20.5858 13.5858 20.25 14 20.25H19C19.4142 20.25 19.75 20.5858 19.75 21C19.75 21.4142 19.4142 21.75 19 21.75H14C13.5858 21.75 13.25 21.4142 13.25 21Z" fill="#FFFFFF"/>
<path fill-rule="evenodd" clip-rule="evenodd" d="M12.25 13C12.25 12.5858 12.5858 12.25 13 12.25H17C17.4142 12.25 17.75 12.5858 17.75 13C17.75 13.4142 17.4142 13.75 17 13.75H13C12.5858 13.75 12.25 13.4142 12.25 13Z" fill="#FFFFFF"/>
</svg>
