<svg width="24" height="24" viewBox="0 0 24 24" fill="none" xmlns="http://www.w3.org/2000/svg">
<path fill-rule="evenodd" clip-rule="evenodd" d="M7 1.25C7.41421 1.25 7.75 1.58579 7.75 2V12C7.75 12.4142 7.41421 12.75 7 12.75H3C2.58579 12.75 2.25 12.4142 2.25 12V7C2.25 4.26013 3.36779 2.76069 4.6025 1.989C5.19628 1.61789 5.78496 1.43495 6.22203 1.34389C6.44179 1.29811 6.62718 1.27472 6.76143 1.26274C6.82868 1.25673 6.88351 1.25355 6.92386 1.25187C6.94404 1.25103 6.96064 1.25056 6.97341 1.2503L6.98966 1.25006L6.99558 1.25001L6.99798 1.25L7 1.25C7.00049 1.25 7 1.25 7 2V1.25ZM6.25 2.88189C5.98948 2.9581 5.69215 3.07684 5.3975 3.261C4.63221 3.73931 3.75 4.73987 3.75 7V11.25H6.25V2.88189Z" fill="#FFFFFF"/>
<path fill-rule="evenodd" clip-rule="evenodd" d="M6.25 5C6.25 4.58579 6.58579 4.25 7 4.25H21C21.4142 4.25 21.75 4.58579 21.75 5V8C21.75 8.41421 21.4142 8.75 21 8.75H7C6.58579 8.75 6.25 8.41421 6.25 8V5ZM7.75 5.75V7.25H20.25V5.75H7.75Z" fill="#FFFFFF"/>
<path fill-rule="evenodd" clip-rule="evenodd" d="M2.25 15C2.25 14.5858 2.58579 14.25 3 14.25H21C21.4142 14.25 21.75 14.5858 21.75 15H21C21.75 15 21.75 14.9997 21.75 15L21.75 15.0013L21.75 15.0029L21.75 15.0074L21.7499 15.0205C21.7497 15.0312 21.7495 15.0457 21.749 15.0637C21.7481 15.0996 21.7464 15.1497 21.7431 15.212C21.7364 15.3363 21.7233 15.5105 21.6973 15.718C21.6459 16.1293 21.5419 16.691 21.3272 17.2633C21.1138 17.8326 20.7758 18.4528 20.2326 18.9356C19.674 19.4321 18.9344 19.75 18 19.75H15.5406L16.2115 21.7628C16.2877 21.9915 16.2494 22.243 16.1084 22.4385C15.9675 22.6341 15.7411 22.75 15.5 22.75H6.5C6.25892 22.75 6.03253 22.6341 5.89157 22.4385C5.7506 22.243 5.71225 21.9915 5.78849 21.7628L6.45943 19.75H3C2.58579 19.75 2.25 19.4142 2.25 19V15ZM20.1777 15.75H3.75V18.25H7.5C7.74108 18.25 7.96747 18.3659 8.10843 18.5615C8.24939 18.757 8.28775 19.0085 8.21151 19.2372L7.54057 21.25H14.4594L13.7885 19.2372C13.7123 19.0085 13.7506 18.757 13.8916 18.5615C14.0325 18.3659 14.2589 18.25 14.5 18.25H18C18.5656 18.25 18.951 18.0679 19.2361 17.8144C19.5367 17.5472 19.7612 17.1674 19.9228 16.7367C20.0505 16.396 20.1295 16.0485 20.1777 15.75Z" fill="#FFFFFF"/>
</svg>
