<svg width="24" height="24" viewBox="0 0 24 24" fill="none" xmlns="http://www.w3.org/2000/svg">
<path d="M1.25 9.94255C1.25 10.3568 1.58579 10.6925 2 10.6925C2.41421 10.6925 2.75 10.3568 2.75 9.94255H1.25ZM15.4008 8.12665L14.6759 8.31906C14.7342 8.53877 14.889 8.72018 15.0968 8.8123C15.3046 8.90443 15.543 8.89732 15.745 8.79298L15.4008 8.12665ZM19.4647 16.4091L19.8016 17.0792L19.8017 17.0791L19.4647 16.4091ZM7.5 21.25C7.91421 21.25 8.25 20.9142 8.25 20.5C8.25 20.0858 7.91421 19.75 7.5 19.75V21.25ZM11 9.75C11.4142 9.75 11.75 9.41421 11.75 9C11.75 8.58579 11.4142 8.25 11 8.25V9.75ZM11 13.75C11.4142 13.75 11.75 13.4142 11.75 13C11.75 12.5858 11.4142 12.25 11 12.25V13.75ZM16 13.75C16.4142 13.75 16.75 13.4142 16.75 13C16.75 12.5858 16.4142 12.25 16 12.25V13.75ZM2.75 9.94255C2.75 6.50967 5.47954 3.75 8.8182 3.75V2.25C4.62566 2.25 1.25 5.70692 1.25 9.94255H2.75ZM8.8182 3.75C11.6099 3.75 13.9748 5.67784 14.6759 8.31906L16.1256 7.93424C15.2588 4.66836 12.3235 2.25 8.8182 2.25V3.75ZM15.745 8.79298C16.2583 8.52777 16.8385 8.37835 17.4545 8.37835V6.87835C16.5925 6.87835 15.777 7.08812 15.0565 7.46032L15.745 8.79298ZM17.4545 8.37835C19.538 8.37835 21.25 10.1019 21.25 12.2568H22.75C22.75 9.29918 20.3919 6.87835 17.4545 6.87835V8.37835ZM21.25 12.2568C21.25 13.7891 20.3816 15.1085 19.1277 15.7391L19.8017 17.0791C21.5521 16.1989 22.75 14.367 22.75 12.2568H21.25ZM19.1278 15.739C19.1228 15.7415 19.1021 15.75 19.0603 15.75V17.25C19.2986 17.25 19.5564 17.2025 19.8016 17.0792L19.1278 15.739ZM6 15.75C4.48121 15.75 3.25 16.9812 3.25 18.5H4.75C4.75 17.8097 5.30965 17.25 6 17.25V15.75ZM3.25 18.5C3.25 20.0188 4.48121 21.25 6 21.25V19.75C5.30965 19.75 4.75 19.1903 4.75 18.5H3.25ZM6 21.25H7.5V19.75H6V21.25ZM11 8.25H9.5V9.75H11V8.25ZM9.5 8.25C7.98124 8.25 6.75 9.48124 6.75 11H8.25C8.25 10.3097 8.80966 9.75 9.5 9.75V8.25ZM6.75 11C6.75 12.5188 7.98124 13.75 9.5 13.75V12.25C8.80966 12.25 8.25 11.6903 8.25 11H6.75ZM9.5 13.75H11V12.25H9.5V13.75ZM9.5 13.75H16V12.25H9.5V13.75ZM19.0603 15.75H6V17.25H19.0603V15.75Z" fill="#FFFFFF"/>
</svg>
