<svg width="24" height="24" viewBox="0 0 24 24" fill="none" xmlns="http://www.w3.org/2000/svg">
<path fill-rule="evenodd" clip-rule="evenodd" d="M8.8182 3.75C5.47954 3.75 2.75 6.50967 2.75 9.94255C2.75 11.9736 3.70697 13.7725 5.18291 14.9014C5.51192 15.153 5.57465 15.6237 5.32301 15.9527C5.07137 16.2817 4.60066 16.3445 4.27164 16.0928C2.43545 14.6885 1.25 12.4542 1.25 9.94255C1.25 5.70692 4.62566 2.25 8.8182 2.25C12.0274 2.25 14.7589 4.27711 15.8626 7.12583C16.3655 6.96504 16.9004 6.87835 17.4545 6.87835C20.3919 6.87835 22.75 9.29918 22.75 12.2568C22.75 14.4557 21.4493 16.3525 19.5776 17.1852C19.1992 17.3536 18.7559 17.1833 18.5875 16.8049C18.4191 16.4264 18.5894 15.9831 18.9679 15.8148C20.3069 15.2191 21.25 13.8537 21.25 12.2568C21.25 10.1019 19.538 8.37835 17.4545 8.37835C16.8385 8.37835 16.2583 8.52777 15.745 8.79298C15.543 8.89732 15.3046 8.90443 15.0968 8.8123C14.889 8.72018 14.7342 8.53877 14.6759 8.31906C13.9748 5.67784 11.6099 3.75 8.8182 3.75Z" fill="#FFFFFF"/>
<path fill-rule="evenodd" clip-rule="evenodd" d="M8 10.75C8.41421 10.75 8.75 11.0858 8.75 11.5V13.5C8.75 13.9142 8.41421 14.25 8 14.25C7.58579 14.25 7.25 13.9142 7.25 13.5V11.5C7.25 11.0858 7.58579 10.75 8 10.75Z" fill="#FFFFFF"/>
<path fill-rule="evenodd" clip-rule="evenodd" d="M12 12.75C12.4142 12.75 12.75 13.0858 12.75 13.5V15.5C12.75 15.9142 12.4142 16.25 12 16.25C11.5858 16.25 11.25 15.9142 11.25 15.5V13.5C11.25 13.0858 11.5858 12.75 12 12.75Z" fill="#FFFFFF"/>
<path fill-rule="evenodd" clip-rule="evenodd" d="M16 10.75C16.4142 10.75 16.75 11.0858 16.75 11.5V13.5C16.75 13.9142 16.4142 14.25 16 14.25C15.5858 14.25 15.25 13.9142 15.25 13.5V11.5C15.25 11.0858 15.5858 10.75 16 10.75Z" fill="#FFFFFF"/>
<path fill-rule="evenodd" clip-rule="evenodd" d="M8 16.25C8.41421 16.25 8.75 16.5858 8.75 17V19C8.75 19.4142 8.41421 19.75 8 19.75C7.58579 19.75 7.25 19.4142 7.25 19V17C7.25 16.5858 7.58579 16.25 8 16.25Z" fill="#FFFFFF"/>
<path fill-rule="evenodd" clip-rule="evenodd" d="M12 18.25C12.4142 18.25 12.75 18.5858 12.75 19V21C12.75 21.4142 12.4142 21.75 12 21.75C11.5858 21.75 11.25 21.4142 11.25 21V19C11.25 18.5858 11.5858 18.25 12 18.25Z" fill="#FFFFFF"/>
<path fill-rule="evenodd" clip-rule="evenodd" d="M16 16.25C16.4142 16.25 16.75 16.5858 16.75 17V19C16.75 19.4142 16.4142 19.75 16 19.75C15.5858 19.75 15.25 19.4142 15.25 19V17C15.25 16.5858 15.5858 16.25 16 16.25Z" fill="#FFFFFF"/>
</svg>
