<svg width="24" height="24" viewBox="0 0 24 24" fill="none" xmlns="http://www.w3.org/2000/svg">
<path fill-rule="evenodd" clip-rule="evenodd" d="M5.6473 16.1631C5.76632 16.5598 5.54119 16.978 5.14444 17.097C4.27862 17.3567 3.63259 17.6511 3.21975 17.9439C2.78742 18.2506 2.75 18.4493 2.75 18.4999C2.75 18.5505 2.78743 18.7493 3.21975 19.0559C3.63258 19.3487 4.27862 19.6431 5.14444 19.9029C6.86654 20.4195 9.29054 20.7499 12 20.7499C14.7095 20.7499 17.1335 20.4195 18.8556 19.9029C19.7214 19.6431 20.3674 19.3487 20.7803 19.0559C21.2126 18.7493 21.25 18.5505 21.25 18.4999C21.25 18.4493 21.2126 18.2506 20.7803 17.944C20.3674 17.6511 19.7214 17.3567 18.8555 17.097C18.4588 16.978 18.2337 16.5598 18.3527 16.1631C18.4717 15.7664 18.8898 15.5412 19.2866 15.6602C20.2304 15.9434 21.0488 16.2954 21.648 16.7205C22.2278 17.1316 22.75 17.7221 22.75 18.4999C22.75 19.2777 22.2278 19.8682 21.648 20.2794C21.0488 20.7044 20.2304 21.0565 19.2866 21.3396C17.3894 21.9088 14.8134 22.2499 12 22.2499C9.18661 22.2499 6.61061 21.9088 4.71342 21.3396C3.7696 21.0565 2.95117 20.7044 2.35195 20.2794C1.77222 19.8682 1.25 19.2777 1.25 18.4999C1.25 17.7221 1.77223 17.1316 2.35195 16.7205C2.95117 16.2954 3.7696 15.9434 4.71342 15.6602C5.11016 15.5412 5.52827 15.7664 5.6473 16.1631Z" fill="#FFFFFF"/>
<path fill-rule="evenodd" clip-rule="evenodd" d="M4.75 8.3409C4.75 4.40729 8.01357 1.25 12 1.25C15.9864 1.25 19.25 4.40729 19.25 8.3409C19.25 11.1053 17.4408 13.5801 15.7884 15.2842C14.9455 16.1535 14.1053 16.8611 13.4767 17.351C13.1618 17.5965 12.8985 17.7885 12.7125 17.9201C12.6194 17.986 12.5456 18.0368 12.4942 18.0717C12.4685 18.0891 12.4484 18.1026 12.4343 18.112L12.4176 18.123L12.4128 18.1262L12.4112 18.1272L12.4107 18.1276C12.4105 18.1277 12.4103 18.1278 12 17.5C11.5897 18.1278 11.5895 18.1277 11.5893 18.1276L11.5888 18.1272L11.5872 18.1262L11.5824 18.123L11.5657 18.112C11.5516 18.1026 11.5315 18.0891 11.5058 18.0717C11.4544 18.0368 11.3806 17.986 11.2875 17.9201C11.1015 17.7885 10.8382 17.5965 10.5233 17.351C9.89475 16.8611 9.0545 16.1535 8.21156 15.2842C6.5592 13.5801 4.75 11.1053 4.75 8.3409ZM12 17.5L11.5897 18.1278C11.839 18.2907 12.161 18.2907 12.4103 18.1278L12 17.5ZM12 16.5854C12.1518 16.4753 12.3399 16.3353 12.5545 16.168C13.1447 15.7079 13.9295 15.0466 14.7116 14.24C16.3092 12.5923 17.75 10.4876 17.75 8.3409C17.75 5.27055 15.1933 2.75 12 2.75C8.80673 2.75 6.25 5.27055 6.25 8.3409C6.25 10.4876 7.6908 12.5923 9.28844 14.24C10.0705 15.0466 10.8553 15.7079 11.4455 16.168C11.6601 16.3353 11.8482 16.4753 12 16.5854Z" fill="#FFFFFF"/>
<path fill-rule="evenodd" clip-rule="evenodd" d="M8.75 8.5C8.75 6.70509 10.2051 5.25 12 5.25C13.7949 5.25 15.25 6.70509 15.25 8.5C15.25 10.2949 13.7949 11.75 12 11.75C10.2051 11.75 8.75 10.2949 8.75 8.5ZM12 6.75C11.0335 6.75 10.25 7.53351 10.25 8.5C10.25 9.46649 11.0335 10.25 12 10.25C12.9665 10.25 13.75 9.46649 13.75 8.5C13.75 7.53351 12.9665 6.75 12 6.75Z" fill="#FFFFFF"/>
</svg>
