<svg width="24" height="24" viewBox="0 0 24 24" fill="none" xmlns="http://www.w3.org/2000/svg">
<path fill-rule="evenodd" clip-rule="evenodd" d="M1.25 17C1.25 16.5858 1.58579 16.25 2 16.25H6C6.41421 16.25 6.75 16.5858 6.75 17V21C6.75 21.4142 6.41421 21.75 6 21.75H2C1.58579 21.75 1.25 21.4142 1.25 21V17ZM2.75 17.75V20.25H5.25V17.75H2.75Z" fill="#FFFFFF"/>
<path fill-rule="evenodd" clip-rule="evenodd" d="M3.25 3C3.25 2.58579 3.58579 2.25 4 2.25H20C20.4142 2.25 20.75 2.58579 20.75 3V9C20.75 9.41421 20.4142 9.75 20 9.75H4C3.58579 9.75 3.25 9.41421 3.25 9V3ZM4.75 3.75V8.25H19.25V3.75H4.75Z" fill="#FFFFFF"/>
<path fill-rule="evenodd" clip-rule="evenodd" d="M12 8.25C12.4142 8.25 12.75 8.58579 12.75 9V17C12.75 17.4142 12.4142 17.75 12 17.75C11.5858 17.75 11.25 17.4142 11.25 17V9C11.25 8.58579 11.5858 8.25 12 8.25Z" fill="#FFFFFF"/>
<path fill-rule="evenodd" clip-rule="evenodd" d="M3.25 13C3.25 12.5858 3.58579 12.25 4 12.25H20C20.4142 12.25 20.75 12.5858 20.75 13V17C20.75 17.4142 20.4142 17.75 20 17.75C19.5858 17.75 19.25 17.4142 19.25 17V13.75H4.75V17C4.75 17.4142 4.41421 17.75 4 17.75C3.58579 17.75 3.25 17.4142 3.25 17V13Z" fill="#FFFFFF"/>
<path fill-rule="evenodd" clip-rule="evenodd" d="M17.25 17C17.25 16.5858 17.5858 16.25 18 16.25H22C22.4142 16.25 22.75 16.5858 22.75 17V21C22.75 21.4142 22.4142 21.75 22 21.75H18C17.5858 21.75 17.25 21.4142 17.25 21V17ZM18.75 17.75V20.25H21.25V17.75H18.75Z" fill="#FFFFFF"/>
<path fill-rule="evenodd" clip-rule="evenodd" d="M9.25 17C9.25 16.5858 9.58579 16.25 10 16.25H14C14.4142 16.25 14.75 16.5858 14.75 17V21C14.75 21.4142 14.4142 21.75 14 21.75H10C9.58579 21.75 9.25 21.4142 9.25 21V17ZM10.75 17.75V20.25H13.25V17.75H10.75Z" fill="#FFFFFF"/>
<path fill-rule="evenodd" clip-rule="evenodd" d="M6.25 6C6.25 5.58579 6.58579 5.25 7 5.25H8C8.41421 5.25 8.75 5.58579 8.75 6C8.75 6.41421 8.41421 6.75 8 6.75H7C6.58579 6.75 6.25 6.41421 6.25 6Z" fill="#FFFFFF"/>
</svg>
