<svg width="24" height="24" viewBox="0 0 24 24" fill="none" xmlns="http://www.w3.org/2000/svg">
<path d="M7.6967 3.39719C7.46498 3.22563 7.14455 3.19644 6.8781 3.34858L7.6967 3.39719Z" fill="#FFFFFF"/>
<path d="M17.1219 3.34858C16.7622 3.14319 16.3041 3.26828 16.0987 3.62799C16.0509 3.71169 16.0157 3.84617 16.0025 3.93611L18.1467 4.01766C17.8197 3.77522 17.4775 3.55165 17.1219 3.34858Z" fill="#FFFFFF"/>
<path d="M7.6219 4.65119C7.9816 4.44579 8.10669 3.98769 7.9013 3.62799L7.80933 3.5L7.6967 3.39719L6.8781 3.34858L6.81712 3.3938C5.45632 4.40275 4.77176 4.91031 4.31593 5.42004C2.72041 7.20439 1.75 9.55184 1.75 12.1226C1.75 17.7249 6.34831 22.2499 12 22.2499C17.6517 22.2499 22.25 17.7249 22.25 12.1226C22.25 9.55184 21.2796 7.20441 19.6841 5.42007C19.2215 4.90278 18.7063 4.43253 18.1467 4.01766L16.0025 3.93611C15.9787 4.21809 16.1162 4.50163 16.3781 4.65119C16.6819 4.82463 16.9741 5.01559 17.2533 5.22262C17.7312 5.57693 18.1711 5.97843 18.5659 6.41993C19.9266 7.94168 20.75 9.93704 20.75 12.1226C20.75 16.8782 16.8417 20.7499 12 20.7499C7.15829 20.7499 3.25 16.8782 3.25 12.1226C3.25 9.93703 4.07336 7.94168 5.43407 6.41993C5.82888 5.97843 6.2688 5.57691 6.74671 5.2226C7.02592 5.01557 7.31814 4.82463 7.6219 4.65119Z" fill="#FFFFFF"/>
<path d="M12 1.25C12.4142 1.25 12.75 1.58579 12.75 2V12C12.75 12.4142 12.4142 12.75 12 12.75C11.5858 12.75 11.25 12.4142 11.25 12V2C11.25 1.58579 11.5858 1.25 12 1.25Z" fill="#FFFFFF"/>
</svg>
