<svg width="24" height="24" viewBox="0 0 24 24" fill="none" xmlns="http://www.w3.org/2000/svg">
<path fill-rule="evenodd" clip-rule="evenodd" d="M3.5 17.25C3.36192 17.25 3.25 17.3619 3.25 17.5V20.25H20.75V17.5C20.75 17.3619 20.6381 17.25 20.5 17.25H3.5ZM1.75 17.5C1.75 16.5335 2.53351 15.75 3.5 15.75H20.5C21.4665 15.75 22.25 16.5335 22.25 17.5V21C22.25 21.4142 21.9142 21.75 21.5 21.75H2.5C2.08579 21.75 1.75 21.4142 1.75 21V17.5Z" fill="#FFFFFF"/>
<path fill-rule="evenodd" clip-rule="evenodd" d="M16.4697 2.46967C16.6103 2.32902 16.8011 2.25 17 2.25H21C21.4142 2.25 21.75 2.58579 21.75 3C21.75 3.41421 21.4142 3.75 21 3.75H17.3107L15.0607 6L17.3107 8.25H21C21.4142 8.25 21.75 8.58579 21.75 9C21.75 9.41421 21.4142 9.75 21 9.75H17C16.8011 9.75 16.6103 9.67098 16.4697 9.53033L13.4697 6.53033C13.1768 6.23744 13.1768 5.76256 13.4697 5.46967L16.4697 2.46967Z" fill="#FFFFFF"/>
<path fill-rule="evenodd" clip-rule="evenodd" d="M4 4.75C3.30964 4.75 2.75 5.30964 2.75 6C2.75 6.69036 3.30964 7.25 4 7.25C4.69036 7.25 5.25 6.69036 5.25 6C5.25 5.30964 4.69036 4.75 4 4.75ZM1.25 6C1.25 4.48122 2.48122 3.25 4 3.25C5.51878 3.25 6.75 4.48122 6.75 6C6.75 7.51878 5.51878 8.75 4 8.75C2.48122 8.75 1.25 7.51878 1.25 6Z" fill="#FFFFFF"/>
<path fill-rule="evenodd" clip-rule="evenodd" d="M5.25 6C5.25 5.58579 5.58579 5.25 6 5.25H14C14.4142 5.25 14.75 5.58579 14.75 6C14.75 6.41421 14.4142 6.75 14 6.75H6C5.58579 6.75 5.25 6.41421 5.25 6Z" fill="#FFFFFF"/>
<path fill-rule="evenodd" clip-rule="evenodd" d="M4.68071 7.32138C5.0555 7.14501 5.5023 7.30586 5.67867 7.68065L9.67867 16.1806C9.85504 16.5554 9.69419 17.0022 9.3194 17.1786C8.94461 17.355 8.49781 17.1941 8.32144 16.8193L4.32144 8.31934C4.14507 7.94455 4.30592 7.49775 4.68071 7.32138Z" fill="#FFFFFF"/>
</svg>
