<svg width="24" height="24" viewBox="0 0 24 24" fill="none" xmlns="http://www.w3.org/2000/svg">
<path fill-rule="evenodd" clip-rule="evenodd" d="M13.25 7C13.25 4.37665 15.3766 2.25 18 2.25C20.6234 2.25 22.75 4.37665 22.75 7C22.75 9.62336 20.6234 11.75 18 11.75H2C1.58579 11.75 1.25 11.4142 1.25 11C1.25 10.5858 1.58579 10.25 2 10.25H18C19.7949 10.25 21.25 8.79494 21.25 7C21.25 5.20507 19.7949 3.75 18 3.75C16.2051 3.75 14.75 5.20507 14.75 7C14.75 7.41421 14.4142 7.75 14 7.75C13.5858 7.75 13.25 7.41421 13.25 7Z" fill="#FFFFFF"/>
<path fill-rule="evenodd" clip-rule="evenodd" d="M1.25 14.5C1.25 14.0858 1.58579 13.75 2 13.75H5C5.41421 13.75 5.75 14.0858 5.75 14.5C5.75 14.9142 5.41421 15.25 5 15.25H2C1.58579 15.25 1.25 14.9142 1.25 14.5Z" fill="#FFFFFF"/>
<path fill-rule="evenodd" clip-rule="evenodd" d="M9.75 14.5C9.75 14.0858 10.0858 13.75 10.5 13.75H13.5C13.9142 13.75 14.25 14.0858 14.25 14.5C14.25 14.9142 13.9142 15.25 13.5 15.25H10.5C10.0858 15.25 9.75 14.9142 9.75 14.5Z" fill="#FFFFFF"/>
<path fill-rule="evenodd" clip-rule="evenodd" d="M18.25 14.5C18.25 14.0858 18.5858 13.75 19 13.75H22C22.4142 13.75 22.75 14.0858 22.75 14.5C22.75 14.9142 22.4142 15.25 22 15.25H19C18.5858 15.25 18.25 14.9142 18.25 14.5Z" fill="#FFFFFF"/>
<path fill-rule="evenodd" clip-rule="evenodd" d="M1.25 17.5C1.25 17.0858 1.58579 16.75 2 16.75H5C5.41421 16.75 5.75 17.0858 5.75 17.5C5.75 17.9142 5.41421 18.25 5 18.25H2C1.58579 18.25 1.25 17.9142 1.25 17.5Z" fill="#FFFFFF"/>
<path fill-rule="evenodd" clip-rule="evenodd" d="M9.75 17.5C9.75 17.0858 10.0858 16.75 10.5 16.75H13.5C13.9142 16.75 14.25 17.0858 14.25 17.5C14.25 17.9142 13.9142 18.25 13.5 18.25H10.5C10.0858 18.25 9.75 17.9142 9.75 17.5Z" fill="#FFFFFF"/>
<path fill-rule="evenodd" clip-rule="evenodd" d="M18.25 17.5C18.25 17.0858 18.5858 16.75 19 16.75H22C22.4142 16.75 22.75 17.0858 22.75 17.5C22.75 17.9142 22.4142 18.25 22 18.25H19C18.5858 18.25 18.25 17.9142 18.25 17.5Z" fill="#FFFFFF"/>
<path fill-rule="evenodd" clip-rule="evenodd" d="M1.25 21C1.25 20.5858 1.58579 20.25 2 20.25H8C8.41421 20.25 8.75 20.5858 8.75 21C8.75 21.4142 8.41421 21.75 8 21.75H2C1.58579 21.75 1.25 21.4142 1.25 21Z" fill="#FFFFFF"/>
<path fill-rule="evenodd" clip-rule="evenodd" d="M15.25 21C15.25 20.5858 15.5858 20.25 16 20.25H22C22.4142 20.25 22.75 20.5858 22.75 21C22.75 21.4142 22.4142 21.75 22 21.75H16C15.5858 21.75 15.25 21.4142 15.25 21Z" fill="#FFFFFF"/>
</svg>
