<svg width="24" height="24" viewBox="0 0 24 24" fill="none" xmlns="http://www.w3.org/2000/svg">
<path fill-rule="evenodd" clip-rule="evenodd" d="M1.25 4.5C1.25 4.08579 1.58579 3.75 2 3.75H22C22.4142 3.75 22.75 4.08579 22.75 4.5V12C22.75 12.4142 22.4142 12.75 22 12.75C21.5858 12.75 21.25 12.4142 21.25 12V5.25H2.75V18.75H12C12.4142 18.75 12.75 19.0858 12.75 19.5C12.75 19.9142 12.4142 20.25 12 20.25H2C1.58579 20.25 1.25 19.9142 1.25 19.5V4.5Z" fill="#FFFFFF"/>
<path fill-rule="evenodd" clip-rule="evenodd" d="M14.25 17C14.25 16.5858 14.5858 16.25 15 16.25H22C22.4142 16.25 22.75 16.5858 22.75 17C22.75 17.4142 22.4142 17.75 22 17.75H15C14.5858 17.75 14.25 17.4142 14.25 17Z" fill="#FFFFFF"/>
<path fill-rule="evenodd" clip-rule="evenodd" d="M18.9697 13.9697C19.2626 13.6768 19.7374 13.6768 20.0303 13.9697L22.5303 16.4697C22.8232 16.7626 22.8232 17.2374 22.5303 17.5303L20.0303 20.0303C19.7374 20.3232 19.2626 20.3232 18.9697 20.0303C18.6768 19.7374 18.6768 19.2626 18.9697 18.9697L20.9393 17L18.9697 15.0303C18.6768 14.7374 18.6768 14.2626 18.9697 13.9697Z" fill="#FFFFFF"/>
<path fill-rule="evenodd" clip-rule="evenodd" d="M1.40004 4.05004C1.64857 3.71867 2.11867 3.65152 2.45004 3.90004L12 11.0625L21.55 3.90004C21.8814 3.65152 22.3515 3.71867 22.6 4.05004C22.8486 4.38142 22.7814 4.85152 22.45 5.10004L12.45 12.6C12.1834 12.8 11.8167 12.8 11.55 12.6L1.55004 5.10004C1.21867 4.85152 1.15152 4.38142 1.40004 4.05004Z" fill="#FFFFFF"/>
</svg>
