<svg width="24" height="24" viewBox="0 0 24 24" fill="none" xmlns="http://www.w3.org/2000/svg">
<path fill-rule="evenodd" clip-rule="evenodd" d="M12 1.25C12.4142 1.25 12.75 1.58579 12.75 2V22C12.75 22.4142 12.4142 22.75 12 22.75C11.5858 22.75 11.25 22.4142 11.25 22V2C11.25 1.58579 11.5858 1.25 12 1.25Z" fill="#FFFFFF"/>
<path fill-rule="evenodd" clip-rule="evenodd" d="M2.71267 6.625C2.91977 6.26628 3.37847 6.14338 3.73719 6.35048L21.0577 16.3505C21.4164 16.5576 21.5393 17.0163 21.3322 17.375C21.1251 17.7337 20.6664 17.8566 20.3077 17.6495L2.98719 7.64952C2.62847 7.44242 2.50556 6.98372 2.71267 6.625Z" fill="#FFFFFF"/>
<path fill-rule="evenodd" clip-rule="evenodd" d="M21.2901 6.63639C21.4972 6.99511 21.3743 7.4538 21.0156 7.66091L3.7345 17.6382C3.37578 17.8453 2.91709 17.7224 2.70998 17.3636C2.50287 17.0049 2.62578 16.5462 2.9845 16.3391L20.2656 6.36187C20.6243 6.15476 21.083 6.27767 21.2901 6.63639Z" fill="#FFFFFF"/>
<path fill-rule="evenodd" clip-rule="evenodd" d="M5.76275 4.28848C6.1557 4.15749 6.58044 4.36986 6.71143 4.76282L8.21143 9.26282C8.27858 9.46426 8.25719 9.68473 8.15257 9.86951C8.04795 10.0543 7.8699 10.1861 7.66261 10.2321L3.16261 11.2321C2.75826 11.322 2.35763 11.067 2.26778 10.6627C2.17792 10.2583 2.43287 9.85771 2.83722 9.76785L6.52543 8.94825L5.2884 5.23716C5.15742 4.8442 5.36979 4.41946 5.76275 4.28848Z" fill="#FFFFFF"/>
<path fill-rule="evenodd" clip-rule="evenodd" d="M2.26778 13.3373C2.35763 12.933 2.75826 12.678 3.16261 12.7679L7.66261 13.7679C7.8699 13.8139 8.04795 13.9457 8.15257 14.1305C8.25719 14.3153 8.27858 14.5357 8.21143 14.7372L6.71143 19.2372C6.58044 19.6301 6.1557 19.8425 5.76275 19.7115C5.36979 19.5805 5.15742 19.1558 5.2884 18.7628L6.52543 15.0518L2.83722 14.2321C2.43287 14.1423 2.17792 13.7417 2.26778 13.3373Z" fill="#FFFFFF"/>
<path fill-rule="evenodd" clip-rule="evenodd" d="M18.2372 4.28848C18.6301 4.41946 18.8425 4.8442 18.7115 5.23716L17.4745 8.94825L21.1627 9.76785C21.567 9.85771 21.822 10.2583 21.7321 10.6627C21.6423 11.067 21.2417 11.322 20.8373 11.2321L16.3373 10.2321C16.13 10.1861 15.952 10.0543 15.8474 9.86951C15.7427 9.68473 15.7213 9.46426 15.7885 9.26282L17.2885 4.76282C17.4195 4.36986 17.8442 4.15749 18.2372 4.28848Z" fill="#FFFFFF"/>
<path fill-rule="evenodd" clip-rule="evenodd" d="M21.7321 13.3373C21.822 13.7417 21.567 14.1423 21.1627 14.2321L17.4745 15.0518L18.7115 18.7628C18.8425 19.1558 18.6301 19.5805 18.2372 19.7115C17.8442 19.8425 17.4195 19.6301 17.2885 19.2372L15.7885 14.7372C15.7213 14.5357 15.7427 14.3153 15.8474 14.1305C15.952 13.9457 16.13 13.8139 16.3373 13.7679L20.8373 12.7679C21.2417 12.678 21.6423 12.933 21.7321 13.3373Z" fill="#FFFFFF"/>
<path fill-rule="evenodd" clip-rule="evenodd" d="M8.46967 2.96967C8.76256 2.67678 9.23744 2.67678 9.53033 2.96967L12 5.43934L14.4697 2.96967C14.7626 2.67678 15.2374 2.67678 15.5303 2.96967C15.8232 3.26256 15.8232 3.73744 15.5303 4.03033L12.5303 7.03033C12.2374 7.32322 11.7626 7.32322 11.4697 7.03033L8.46967 4.03033C8.17678 3.73744 8.17678 3.26256 8.46967 2.96967Z" fill="#FFFFFF"/>
<path fill-rule="evenodd" clip-rule="evenodd" d="M11.4697 16.9697C11.7626 16.6768 12.2374 16.6768 12.5303 16.9697L15.5303 19.9697C15.8232 20.2626 15.8232 20.7374 15.5303 21.0303C15.2374 21.3232 14.7626 21.3232 14.4697 21.0303L12 18.5607L9.53033 21.0303C9.23744 21.3232 8.76256 21.3232 8.46967 21.0303C8.17678 20.7374 8.17678 20.2626 8.46967 19.9697L11.4697 16.9697Z" fill="#FFFFFF"/>
</svg>
