<svg width="24" height="24" viewBox="0 0 24 24" fill="none" xmlns="http://www.w3.org/2000/svg">
<path d="M3.10352 11.931C3.10352 7.0176 7.08664 3.03448 12.0001 3.03448C13.6238 3.03448 15.1477 3.47004 16.4592 4.2311C16.7557 4.40315 16.8566 4.78298 16.6845 5.07948C16.5125 5.37597 16.1327 5.47685 15.8362 5.3048C14.7088 4.65062 13.3991 4.27586 12.0001 4.27586C7.77223 4.27586 4.3449 7.7032 4.3449 11.931C4.3449 16.1589 7.77223 19.5862 12.0001 19.5862C16.2279 19.5862 19.6552 16.1589 19.6552 11.931C19.6552 10.5416 19.2857 9.2404 18.6398 8.11834C18.4688 7.82124 18.571 7.44177 18.8681 7.27076C19.1652 7.09976 19.5447 7.20198 19.7157 7.49907C20.4671 8.80449 20.8966 10.3186 20.8966 11.931C20.8966 16.8445 16.9135 20.8276 12.0001 20.8276C7.08664 20.8276 3.10352 16.8445 3.10352 11.931Z" fill="#FFFFFF"/>
<path d="M15.8706 8.85917L15.2893 8.64146L15.0716 8.0602C15.2995 7.97486 15.5562 8.03052 15.7282 8.20257C15.9003 8.37462 15.9559 8.63132 15.8706 8.85917ZM12.8023 12.5915C12.8023 12.5915 12.8023 12.5915 12.8023 12.5915C12.3983 12.9955 11.7433 12.9955 11.3393 12.5915C10.9353 12.1875 10.9353 11.5325 11.3393 11.1285C11.3666 11.1012 11.4446 11.0394 11.5979 10.9459C11.7425 10.8576 11.9254 10.7582 12.1379 10.6513C12.5623 10.4377 13.0768 10.2079 13.5797 9.99453C13.789 9.90572 13.995 9.82032 14.19 9.74075M12.8023 12.5915C12.8296 12.5642 12.8914 12.4861 12.9849 12.3329C13.0731 12.1883 13.1725 12.0054 13.2794 11.7929C13.493 11.3685 13.7229 10.854 13.9363 10.3511C14.0251 10.1418 14.1105 9.93577 14.19 9.74075M15.2893 8.64146C15.0716 8.0602 15.0717 8.06018 15.0716 8.0602L15.06 8.06458L15.0276 8.07679L14.9057 8.12316C14.8007 8.1633 14.6503 8.22123 14.4679 8.29272C14.1036 8.43556 13.6099 8.63321 13.0948 8.85175C12.5813 9.06964 12.0389 9.31143 11.5798 9.54245C11.3505 9.65786 11.1351 9.77402 10.9513 9.88618C10.7761 9.99306 10.5958 10.1164 10.4615 10.2507C9.57273 11.1395 9.57273 12.5805 10.4615 13.4693C11.3503 14.3581 12.7913 14.3581 13.6801 13.4693C13.8144 13.335 13.9377 13.1547 14.0446 12.9795C14.1568 12.7957 14.2729 12.5803 14.3883 12.3509C14.6194 11.8919 14.8611 11.3495 15.079 10.836C15.2976 10.3209 15.4952 9.82723 15.6381 9.46289C15.7096 9.28054 15.7675 9.13015 15.8076 9.02512L15.854 8.90318L15.8662 8.87081L15.8706 8.85917C15.8706 8.85912 15.8706 8.85917 15.2893 8.64146Z" fill="#FFFFFF"/>
</svg>
