<svg width="24" height="24" viewBox="0 0 24 24" fill="none" xmlns="http://www.w3.org/2000/svg">
<path fill-rule="evenodd" clip-rule="evenodd" d="M4.75 12C4.75 7.99594 7.99594 4.75 12 4.75C16.0041 4.75 19.25 7.99594 19.25 12C19.25 16.0041 16.0041 19.25 12 19.25C7.99594 19.25 4.75 16.0041 4.75 12ZM12 6.25C8.82436 6.25 6.25 8.82436 6.25 12C6.25 15.1756 8.82436 17.75 12 17.75C15.1756 17.75 17.75 15.1756 17.75 12C17.75 8.82436 15.1756 6.25 12 6.25Z" fill="#FFFFFF"/>
<path d="M12 3C12.6904 3 13.25 2.44036 13.25 1.75C13.25 1.05964 12.6904 0.5 12 0.5C11.3097 0.5 10.75 1.05964 10.75 1.75C10.75 2.44036 11.3097 3 12 3Z" fill="#FFFFFF"/>
<path d="M19.25 6C19.9404 6 20.5 5.44035 20.5 4.75C20.5 4.05964 19.9404 3.5 19.25 3.5C18.5597 3.5 18 4.05964 18 4.75C18 5.44035 18.5597 6 19.25 6Z" fill="#FFFFFF"/>
<path d="M22.25 13.25C22.9404 13.25 23.5 12.6904 23.5 12C23.5 11.3097 22.9404 10.75 22.25 10.75C21.5597 10.75 21 11.3097 21 12C21 12.6904 21.5597 13.25 22.25 13.25Z" fill="#FFFFFF"/>
<path d="M19.25 20.5C19.9404 20.5 20.5 19.9404 20.5 19.25C20.5 18.5597 19.9404 18 19.25 18C18.5597 18 18 18.5597 18 19.25C18 19.9404 18.5597 20.5 19.25 20.5Z" fill="#FFFFFF"/>
<path d="M12 23.5C12.6904 23.5 13.25 22.9404 13.25 22.25C13.25 21.5597 12.6904 21 12 21C11.3097 21 10.75 21.5597 10.75 22.25C10.75 22.9404 11.3097 23.5 12 23.5Z" fill="#FFFFFF"/>
<path d="M4.75 20.5C5.44035 20.5 6 19.9404 6 19.25C6 18.5597 5.44035 18 4.75 18C4.05964 18 3.5 18.5597 3.5 19.25C3.5 19.9404 4.05964 20.5 4.75 20.5Z" fill="#FFFFFF"/>
<path d="M1.75 13.25C2.44036 13.25 3 12.6904 3 12C3 11.3097 2.44036 10.75 1.75 10.75C1.05964 10.75 0.5 11.3097 0.5 12C0.5 12.6904 1.05964 13.25 1.75 13.25Z" fill="#FFFFFF"/>
<path d="M4.75 6C5.44035 6 6 5.44035 6 4.75C6 4.05964 5.44035 3.5 4.75 3.5C4.05964 3.5 3.5 4.05964 3.5 4.75C3.5 5.44035 4.05964 6 4.75 6Z" fill="#FFFFFF"/>
</svg>
