<svg width="24" height="24" viewBox="0 0 24 24" fill="none" xmlns="http://www.w3.org/2000/svg">
<path fill-rule="evenodd" clip-rule="evenodd" d="M11.3107 8.18111C11.6479 6.23223 13.3457 4.75 15.3912 4.75C17.6783 4.75 19.5325 6.60414 19.5325 8.8913C19.5325 11.1785 17.6783 13.0326 15.3912 13.0326C14.977 13.0326 14.6412 12.6968 14.6412 12.2826C14.6412 11.8684 14.977 11.5326 15.3912 11.5326C16.8499 11.5326 18.0325 10.35 18.0325 8.8913C18.0325 7.43256 16.8499 6.25 15.3912 6.25C14.0879 6.25 13.0036 7.19477 12.7887 8.43689C12.7181 8.84503 12.3299 9.11865 11.9218 9.04802C11.5136 8.97739 11.24 8.58926 11.3107 8.18111Z" fill="#FFFFFF"/>
<path d="M16.5 3.5C17.0523 3.5 17.5 3.05228 17.5 2.5C17.5 1.94771 17.0523 1.5 16.5 1.5C15.9477 1.5 15.5 1.94771 15.5 2.5C15.5 3.05228 15.9477 3.5 16.5 3.5Z" fill="#FFFFFF"/>
<path d="M21 6C21.5523 6 22 5.5523 22 5C22 4.44771 21.5523 4 21 4C20.4477 4 20 4.44771 20 5C20 5.5523 20.4477 6 21 6Z" fill="#FFFFFF"/>
<path d="M22 10.5C22.5523 10.5 23 10.0523 23 9.5C23 8.9477 22.5523 8.5 22 8.5C21.4477 8.5 21 8.9477 21 9.5C21 10.0523 21.4477 10.5 22 10.5Z" fill="#FFFFFF"/>
<path d="M11 5C11.5523 5 12 4.55228 12 4C12 3.44771 11.5523 3 11 3C10.4477 3 10 3.44771 10 4C10 4.55228 10.4477 5 11 5Z" fill="#FFFFFF"/>
<path fill-rule="evenodd" clip-rule="evenodd" d="M8.8182 8.25C5.47954 8.25 2.75 11.0097 2.75 14.4425C2.75 16.4736 3.70697 18.2725 5.18291 19.4014C5.51192 19.653 5.57465 20.1237 5.32301 20.4527C5.07137 20.7817 4.60066 20.8445 4.27164 20.5928C2.43545 19.1885 1.25 16.9542 1.25 14.4425C1.25 10.2069 4.62566 6.75 8.8182 6.75C12.0274 6.75 14.7589 8.77711 15.8626 11.6258C16.3655 11.465 16.9004 11.3784 17.4545 11.3784C20.3919 11.3784 22.75 13.7992 22.75 16.7568C22.75 18.9557 21.4493 20.8525 19.5776 21.6852C19.1992 21.8536 18.7559 21.6833 18.5875 21.3049C18.4191 20.9264 18.5894 20.4831 18.9679 20.3148C20.3069 19.7191 21.25 18.3537 21.25 16.7568C21.25 14.6019 19.538 12.8784 17.4545 12.8784C16.8385 12.8784 16.2583 13.0278 15.745 13.293C15.543 13.3973 15.3046 13.4044 15.0968 13.3123C14.889 13.2202 14.7342 13.0388 14.6759 12.8191C13.9748 10.1778 11.6099 8.25 8.8182 8.25Z" fill="#FFFFFF"/>
<path fill-rule="evenodd" clip-rule="evenodd" d="M5.25 14.5C5.25 12.4289 6.92894 10.75 9 10.75C10.0354 10.75 10.9739 11.1706 11.6517 11.8484C11.9445 12.1413 11.9445 12.6162 11.6516 12.9091C11.3587 13.2019 10.8838 13.2019 10.5909 12.909C10.183 12.501 9.62155 12.25 9 12.25C7.75736 12.25 6.75 13.2574 6.75 14.5C6.75 15.1215 7.00103 15.683 7.40901 16.0909C7.70191 16.3838 7.70193 16.8587 7.40905 17.1516C7.11617 17.4445 6.6413 17.4445 6.34839 17.1517C5.67057 16.4739 5.25 15.5354 5.25 14.5Z" fill="#FFFFFF"/>
</svg>
