<svg width="24" height="24" viewBox="0 0 24 24" fill="none" xmlns="http://www.w3.org/2000/svg">
<path fill-rule="evenodd" clip-rule="evenodd" d="M2.75 12C2.75 6.89079 6.89079 2.75 12 2.75C17.1092 2.75 21.25 6.89079 21.25 12C21.25 17.1092 17.1092 21.25 12 21.25C6.89079 21.25 2.75 17.1092 2.75 12ZM12 4.25C7.71921 4.25 4.25 7.71921 4.25 12C4.25 16.2808 7.71921 19.75 12 19.75C16.2808 19.75 19.75 16.2808 19.75 12C19.75 7.71921 16.2808 4.25 12 4.25Z" fill="#FFFFFF"/>
<path fill-rule="evenodd" clip-rule="evenodd" d="M7.25 12C7.25 9.37579 9.37579 7.25 12 7.25C14.6242 7.25 16.75 9.37579 16.75 12C16.75 14.6242 14.6242 16.75 12 16.75C9.37579 16.75 7.25 14.6242 7.25 12ZM12 8.75C10.2042 8.75 8.75 10.2042 8.75 12C8.75 13.7958 10.2042 15.25 12 15.25C13.7958 15.25 15.25 13.7958 15.25 12C15.25 10.2042 13.7958 8.75 12 8.75Z" fill="#FFFFFF"/>
<path fill-rule="evenodd" clip-rule="evenodd" d="M1.25 12C1.25 11.5858 1.58579 11.25 2 11.25H22C22.4142 11.25 22.75 11.5858 22.75 12C22.75 12.4142 22.4142 12.75 22 12.75H2C1.58579 12.75 1.25 12.4142 1.25 12Z" fill="#FFFFFF"/>
<path fill-rule="evenodd" clip-rule="evenodd" d="M12 1.25C12.4142 1.25 12.75 1.58579 12.75 2V22C12.75 22.4142 12.4142 22.75 12 22.75C11.5858 22.75 11.25 22.4142 11.25 22V2C11.25 1.58579 11.5858 1.25 12 1.25Z" fill="#FFFFFF"/>
</svg>
