<svg width="24" height="24" viewBox="0 0 24 24" fill="none" xmlns="http://www.w3.org/2000/svg">
<path fill-rule="evenodd" clip-rule="evenodd" d="M6.53033 2.46967C6.82322 2.76256 6.82322 3.23744 6.53033 3.53033L3.53033 6.53033C3.23744 6.82322 2.76256 6.82322 2.46967 6.53033C2.17678 6.23744 2.17678 5.76256 2.46967 5.46967L5.46967 2.46967C5.76256 2.17678 6.23744 2.17678 6.53033 2.46967Z" fill="#FFFFFF"/>
<path fill-rule="evenodd" clip-rule="evenodd" d="M21.5303 17.4697C21.8232 17.7626 21.8232 18.2374 21.5303 18.5303L18.5303 21.5303C18.2374 21.8232 17.7626 21.8232 17.4697 21.5303C17.1768 21.2374 17.1768 20.7626 17.4697 20.4697L20.4697 17.4697C20.7626 17.1768 21.2374 17.1768 21.5303 17.4697Z" fill="#FFFFFF"/>
<path fill-rule="evenodd" clip-rule="evenodd" d="M11.5303 2.46967C11.8232 2.76256 11.8232 3.23744 11.5303 3.53033L3.53033 11.5303C3.23744 11.8232 2.76256 11.8232 2.46967 11.5303C2.17678 11.2374 2.17678 10.7626 2.46967 10.4697L10.4697 2.46967C10.7626 2.17678 11.2374 2.17678 11.5303 2.46967Z" fill="#FFFFFF"/>
<path fill-rule="evenodd" clip-rule="evenodd" d="M16.5303 2.46967C16.8232 2.76256 16.8232 3.23744 16.5303 3.53033L3.53033 16.5303C3.23744 16.8232 2.76256 16.8232 2.46967 16.5303C2.17678 16.2374 2.17678 15.7626 2.46967 15.4697L15.4697 2.46967C15.7626 2.17678 16.2374 2.17678 16.5303 2.46967Z" fill="#FFFFFF"/>
<path fill-rule="evenodd" clip-rule="evenodd" d="M21.5303 2.46967C21.8232 2.76256 21.8232 3.23744 21.5303 3.53033L3.53033 21.5303C3.23744 21.8232 2.76256 21.8232 2.46967 21.5303C2.17678 21.2374 2.17678 20.7626 2.46967 20.4697L20.4697 2.46967C20.7626 2.17678 21.2374 2.17678 21.5303 2.46967Z" fill="#FFFFFF"/>
<path fill-rule="evenodd" clip-rule="evenodd" d="M21.5303 7.46967C21.8232 7.76256 21.8232 8.23744 21.5303 8.53033L8.53033 21.5303C8.23744 21.8232 7.76256 21.8232 7.46967 21.5303C7.17678 21.2374 7.17678 20.7626 7.46967 20.4697L20.4697 7.46967C20.7626 7.17678 21.2374 7.17678 21.5303 7.46967Z" fill="#FFFFFF"/>
<path fill-rule="evenodd" clip-rule="evenodd" d="M21.5303 12.4697C21.8232 12.7626 21.8232 13.2374 21.5303 13.5303L13.5303 21.5303C13.2374 21.8232 12.7626 21.8232 12.4697 21.5303C12.1768 21.2374 12.1768 20.7626 12.4697 20.4697L20.4697 12.4697C20.7626 12.1768 21.2374 12.1768 21.5303 12.4697Z" fill="#FFFFFF"/>
</svg>
