<svg width="24" height="24" viewBox="0 0 24 24" fill="none" xmlns="http://www.w3.org/2000/svg">
<path fill-rule="evenodd" clip-rule="evenodd" d="M9.54771 9.77995C9.64437 9.465 9.93525 9.25 10.2647 9.25H15.1177C15.3941 9.25 15.6481 9.40207 15.7787 9.64572C15.9093 9.88937 15.8953 10.1851 15.7422 10.4153L13.6833 13.5115L16.1824 14.1379C16.4349 14.2012 16.6366 14.391 16.7151 14.6393C16.7936 14.8876 16.7377 15.1589 16.5674 15.3559L10.8321 21.9905C10.6051 22.2531 10.2275 22.3256 9.9193 22.1657C9.61114 22.0058 9.45299 21.6554 9.53699 21.3185L10.6595 16.8169L8.39367 16.4924C8.17668 16.4613 7.98415 16.3369 7.86672 16.1518C7.74928 15.9667 7.7187 15.7395 7.78301 15.53L9.54771 9.77995ZM10.8191 10.75L9.47423 15.1319L11.6946 15.4499C11.9047 15.48 12.0922 15.5976 12.2106 15.7737C12.329 15.9498 12.3673 16.1679 12.316 16.3738L11.753 18.6315L14.6358 15.2967L12.2883 14.7082C12.0519 14.649 11.8591 14.4786 11.7711 14.2514C11.6832 14.0242 11.7112 13.7684 11.8461 13.5655L13.7183 10.75H10.8191Z" fill="#FFFFFF"/>
<path fill-rule="evenodd" clip-rule="evenodd" d="M8.8182 3.25C5.47954 3.25 2.75 6.00967 2.75 9.44255C2.75 11.4736 3.70697 13.2725 5.18291 14.4014C5.51192 14.653 5.57465 15.1237 5.32301 15.4527C5.07137 15.7817 4.60066 15.8445 4.27164 15.5928C2.43545 14.1885 1.25 11.9542 1.25 9.44255C1.25 5.20692 4.62566 1.75 8.8182 1.75C12.0274 1.75 14.7589 3.7771 15.8626 6.62583C16.3655 6.46504 16.9004 6.37835 17.4545 6.37835C20.3919 6.37835 22.75 8.79918 22.75 11.7568C22.75 13.9557 21.4493 15.8525 19.5776 16.6852C19.1992 16.8536 18.7559 16.6833 18.5875 16.3049C18.4191 15.9264 18.5894 15.4831 18.9679 15.3148C20.3069 14.7191 21.25 13.3537 21.25 11.7568C21.25 9.60192 19.538 7.87835 17.4545 7.87835C16.8385 7.87835 16.2583 8.02777 15.745 8.29298C15.543 8.39732 15.3046 8.40443 15.0968 8.3123C14.889 8.22018 14.7342 8.03877 14.6759 7.81906C13.9748 5.17783 11.6099 3.25 8.8182 3.25Z" fill="#FFFFFF"/>
</svg>
