<svg width="24" height="24" viewBox="0 0 24 24" fill="none" xmlns="http://www.w3.org/2000/svg">
<path fill-rule="evenodd" clip-rule="evenodd" d="M8.8182 3.75C5.47954 3.75 2.75 6.50967 2.75 9.94255C2.75 11.9736 3.70697 13.7725 5.18291 14.9014C5.51192 15.153 5.57465 15.6237 5.32301 15.9527C5.07137 16.2817 4.60066 16.3445 4.27164 16.0928C2.43545 14.6885 1.25 12.4542 1.25 9.94255C1.25 5.70692 4.62566 2.25 8.8182 2.25C12.0274 2.25 14.7589 4.27711 15.8626 7.12583C16.3655 6.96504 16.9004 6.87835 17.4545 6.87835C20.3919 6.87835 22.75 9.29918 22.75 12.2568C22.75 14.4557 21.4493 16.3525 19.5776 17.1852C19.1992 17.3536 18.7559 17.1833 18.5875 16.8049C18.4191 16.4264 18.5894 15.9831 18.9679 15.8148C20.3069 15.2191 21.25 13.8537 21.25 12.2568C21.25 10.1019 19.538 8.37835 17.4545 8.37835C16.8385 8.37835 16.2583 8.52777 15.745 8.79298C15.543 8.89732 15.3046 8.90443 15.0968 8.8123C14.889 8.72018 14.7342 8.53877 14.6759 8.31906C13.9748 5.67784 11.6099 3.75 8.8182 3.75Z" fill="#FFFFFF"/>
<path fill-rule="evenodd" clip-rule="evenodd" d="M9.23731 10.7626C9.5302 11.0555 9.53019 11.5304 9.2373 11.8232L7.82305 13.2374C7.53015 13.5303 7.05527 13.5303 6.76239 13.2374C6.4695 12.9445 6.46951 12.4697 6.7624 12.1768L8.17665 10.7626C8.46955 10.4697 8.94443 10.4697 9.23731 10.7626Z" fill="#FFFFFF"/>
<path fill-rule="evenodd" clip-rule="evenodd" d="M14.0301 11.4696C14.323 11.7625 14.3231 12.2374 14.0302 12.5303L11.3104 15.2506H14.502C14.8053 15.2506 15.0787 15.4332 15.1948 15.7133C15.311 15.9934 15.247 16.3159 15.0328 16.5305L11.0309 20.5389C10.7383 20.832 10.2634 20.8324 9.97028 20.5398C9.67714 20.2471 9.67675 19.7722 9.96941 19.4791L12.6935 16.7506H9.50002C9.19669 16.7506 8.92322 16.5679 8.80713 16.2876C8.69103 16.0074 8.75517 15.6848 8.96964 15.4703L12.9694 11.4697C13.2623 11.1768 13.7372 11.1768 14.0301 11.4696Z" fill="#FFFFFF"/>
<path fill-rule="evenodd" clip-rule="evenodd" d="M17.2373 18.7626C17.5302 19.0555 17.5302 19.5304 17.2373 19.8232L15.823 21.2374C15.5301 21.5303 15.0553 21.5303 14.7624 21.2374C14.4695 20.9445 14.4695 20.4697 14.7624 20.1768L16.1767 18.7626C16.4696 18.4697 16.9444 18.4697 17.2373 18.7626Z" fill="#FFFFFF"/>
</svg>
