<svg width="24" height="24" viewBox="0 0 24 24" fill="none" xmlns="http://www.w3.org/2000/svg">
<path fill-rule="evenodd" clip-rule="evenodd" d="M16 2.75C13.1005 2.75 10.75 5.1005 10.75 8C10.75 8.88798 10.9699 9.72244 11.3575 10.4541C11.5117 10.7451 11.458 11.1026 11.2251 11.3355L3.06066 19.5L4.5 20.9393L12.6645 12.7749C12.8974 12.542 13.2549 12.4883 13.5459 12.6425C14.2776 13.0301 15.112 13.25 16 13.25C18.8995 13.25 21.25 10.8995 21.25 8C21.25 7.48606 21.1763 6.99005 21.0391 6.52153L18.0303 9.53033C17.7374 9.82322 17.2626 9.82322 16.9697 9.53033L14.4697 7.03033C14.1768 6.73744 14.1768 6.26256 14.4697 5.96967L17.4785 2.96085C17.01 2.82365 16.5139 2.75 16 2.75ZM9.25 8C9.25 4.27208 12.2721 1.25 16 1.25C17.1387 1.25 18.2137 1.53258 19.1563 2.03208C19.3666 2.14349 19.5115 2.34808 19.5469 2.5834C19.5822 2.81873 19.5038 3.05686 19.3355 3.22512L16.0607 6.5L17.5 7.93934L20.7749 4.66447C20.9431 4.4962 21.1813 4.41777 21.4166 4.45312C21.6519 4.48847 21.8565 4.63339 21.9679 4.84367C22.4674 5.78634 22.75 6.86128 22.75 8C22.75 11.7279 19.7279 14.75 16 14.75C15.0607 14.75 14.1647 14.5577 13.3507 14.21L5.03033 22.5303C4.73744 22.8232 4.26256 22.8232 3.96967 22.5303L1.46967 20.0303C1.17678 19.7374 1.17678 19.2626 1.46967 18.9697L9.79 10.6493C9.4423 9.83525 9.25 8.93933 9.25 8Z" fill="#FFFFFF"/>
</svg>
