<svg width="24" height="24" viewBox="0 0 24 24" fill="none" xmlns="http://www.w3.org/2000/svg">
<path fill-rule="evenodd" clip-rule="evenodd" d="M3.25 9C3.25 7.48122 4.48122 6.25 6 6.25C7.51878 6.25 8.75 7.48122 8.75 9C8.75 10.5188 7.51878 11.75 6 11.75C4.48122 11.75 3.25 10.5188 3.25 9ZM6 7.75C5.30964 7.75 4.75 8.30964 4.75 9C4.75 9.69036 5.30964 10.25 6 10.25C6.69036 10.25 7.25 9.69036 7.25 9C7.25 8.30964 6.69036 7.75 6 7.75Z" fill="#FFFFFF"/>
<path fill-rule="evenodd" clip-rule="evenodd" d="M15.25 12C15.25 10.4812 16.4812 9.25 18 9.25C19.5188 9.25 20.75 10.4812 20.75 12C20.75 13.5188 19.5188 14.75 18 14.75C16.4812 14.75 15.25 13.5188 15.25 12ZM18 10.75C17.3096 10.75 16.75 11.3096 16.75 12C16.75 12.6904 17.3096 13.25 18 13.25C18.6904 13.25 19.25 12.6904 19.25 12C19.25 11.3096 18.6904 10.75 18 10.75Z" fill="#FFFFFF"/>
<path fill-rule="evenodd" clip-rule="evenodd" d="M11.4697 1.46967C11.7626 1.17678 12.2374 1.17678 12.5303 1.46967L15.0303 3.96967C15.3232 4.26256 15.3232 4.73744 15.0303 5.03033C14.7374 5.32322 14.2626 5.32322 13.9697 5.03033L12 3.06066L10.0303 5.03033C9.73744 5.32322 9.26256 5.32322 8.96967 5.03033C8.67678 4.73744 8.67678 4.26256 8.96967 3.96967L11.4697 1.46967Z" fill="#FFFFFF"/>
<path fill-rule="evenodd" clip-rule="evenodd" d="M6 10.25C6.41421 10.25 6.75 10.5858 6.75 11V13.7783L12.9776 18.9217C13.297 19.1855 13.342 19.6582 13.0783 19.9776C12.8145 20.297 12.3418 20.342 12.0224 20.0783L5.5224 14.7099C5.34989 14.5674 5.25 14.3553 5.25 14.1316V11C5.25 10.5858 5.58579 10.25 6 10.25Z" fill="#FFFFFF"/>
<path fill-rule="evenodd" clip-rule="evenodd" d="M18.0001 13.25C18.4143 13.25 18.7501 13.5858 18.7501 14V16.3947C18.7501 16.6423 18.6279 16.8739 18.4236 17.0137L12.4236 21.119C12.0817 21.3529 11.615 21.2654 11.3811 20.9235C11.1472 20.5817 11.2347 20.1149 11.5766 19.881L17.2501 15.9991V14C17.2501 13.5858 17.5859 13.25 18.0001 13.25Z" fill="#FFFFFF"/>
<path fill-rule="evenodd" clip-rule="evenodd" d="M12 1.25C12.4142 1.25 12.75 1.58579 12.75 2V21.5C12.75 21.9142 12.4142 22.25 12 22.25C11.5858 22.25 11.25 21.9142 11.25 21.5V2C11.25 1.58579 11.5858 1.25 12 1.25Z" fill="#FFFFFF"/>
<path fill-rule="evenodd" clip-rule="evenodd" d="M9.75 22C9.75 21.5858 10.0858 21.25 10.5 21.25H13.5C13.9142 21.25 14.25 21.5858 14.25 22C14.25 22.4142 13.9142 22.75 13.5 22.75H10.5C10.0858 22.75 9.75 22.4142 9.75 22Z" fill="#FFFFFF"/>
</svg>
