<svg width="24" height="24" viewBox="0 0 24 24" fill="none" xmlns="http://www.w3.org/2000/svg">
<path fill-rule="evenodd" clip-rule="evenodd" d="M12 2.75C6.89137 2.75 2.75 6.89137 2.75 12C2.75 17.1086 6.89137 21.25 12 21.25C17.1086 21.25 21.25 17.1086 21.25 12C21.25 6.89137 17.1086 2.75 12 2.75ZM1.25 12C1.25 6.06294 6.06294 1.25 12 1.25C17.9371 1.25 22.75 6.06294 22.75 12C22.75 17.9371 17.9371 22.75 12 22.75C6.06294 22.75 1.25 17.9371 1.25 12Z" fill="#FFFFFF"/>
<path d="M8.5 12.9497C9.05228 12.9497 9.5 12.502 9.5 11.9497C9.5 11.3974 9.05228 10.9497 8.5 10.9497C7.94772 10.9497 7.5 11.3974 7.5 11.9497C7.5 12.502 7.94772 12.9497 8.5 12.9497Z" fill="#FFFFFF"/>
<path fill-rule="evenodd" clip-rule="evenodd" d="M10.4443 8.94452C10.7372 8.65163 11.212 8.65163 11.5049 8.94452C12.2732 9.7128 12.7497 10.7763 12.7497 11.9497C12.7497 13.1231 12.2732 14.1867 11.5049 14.9549C11.212 15.2478 10.7372 15.2478 10.4443 14.9549C10.1514 14.662 10.1514 14.1872 10.4443 13.8943C10.9428 13.3958 11.2497 12.7093 11.2497 11.9497C11.2497 11.1901 10.9428 10.5037 10.4443 10.0052C10.1514 9.71229 10.1514 9.23742 10.4443 8.94452Z" fill="#FFFFFF"/>
<path fill-rule="evenodd" clip-rule="evenodd" d="M12.9199 6.46967C13.2128 6.17678 13.6876 6.17678 13.9805 6.46967C15.3822 7.87132 16.2504 9.80985 16.2504 11.9497C16.2504 14.0896 15.3822 16.0282 13.9805 17.4298C13.6876 17.7227 13.2128 17.7227 12.9199 17.4298C12.627 17.1369 12.627 16.6621 12.9199 16.3692C14.0517 15.2373 14.7504 13.6758 14.7504 11.9497C14.7504 10.2237 14.0517 8.66218 12.9199 7.53033C12.627 7.23744 12.627 6.76256 12.9199 6.46967Z" fill="#FFFFFF"/>
</svg>
