<svg width="50" height="50" viewBox="0 0 50 50" fill="none" xmlns="http://www.w3.org/2000/svg">
<path fill-rule="evenodd" clip-rule="evenodd" d="M2.25 10.5C2.25 8.98124 3.48121 7.75 5 7.75H6C6.41421 7.75 6.75 8.08579 6.75 8.5C6.75 8.91421 6.41421 9.25 6 9.25H5C4.30965 9.25 3.75 9.80966 3.75 10.5C3.75 11.1903 4.30965 11.75 5 11.75H6C6.41421 11.75 6.75 12.0858 6.75 12.5C6.75 12.9142 6.41421 13.25 6 13.25H5C3.48121 13.25 2.25 12.0188 2.25 10.5Z" fill="#FFFFFF"/>
<path fill-rule="evenodd" clip-rule="evenodd" d="M6.75 18.5C6.75 16.9812 7.98124 15.75 9.5 15.75H11C11.4142 15.75 11.75 16.0858 11.75 16.5C11.75 16.9142 11.4142 17.25 11 17.25H9.5C8.80966 17.25 8.25 17.8097 8.25 18.5C8.25 19.1903 8.80966 19.75 9.5 19.75H11C11.4142 19.75 11.75 20.0858 11.75 20.5C11.75 20.9142 11.4142 21.25 11 21.25H9.5C7.98124 21.25 6.75 20.0188 6.75 18.5Z" fill="#FFFFFF"/>
<path fill-rule="evenodd" clip-rule="evenodd" d="M9.25 5.5C9.25 3.98121 10.4812 2.75 12 2.75H13.5C13.9142 2.75 14.25 3.08579 14.25 3.5C14.25 3.91421 13.9142 4.25 13.5 4.25H12C11.3097 4.25 10.75 4.80965 10.75 5.5C10.75 6.19034 11.3097 6.75 12 6.75H13.5C13.9142 6.75 14.25 7.08579 14.25 7.5C14.25 7.91421 13.9142 8.25 13.5 8.25H12C10.4812 8.25 9.25 7.01876 9.25 5.5Z" fill="#FFFFFF"/>
<path fill-rule="evenodd" clip-rule="evenodd" d="M11.25 7.5C11.25 7.08579 11.5858 6.75 12 6.75H20C20.4142 6.75 20.75 7.08579 20.75 7.5C20.75 7.91421 20.4142 8.25 20 8.25H12C11.5858 8.25 11.25 7.91421 11.25 7.5Z" fill="#FFFFFF"/>
<path fill-rule="evenodd" clip-rule="evenodd" d="M5.25 12.5C5.25 12.0858 5.58579 11.75 6 11.75H21C21.4142 11.75 21.75 12.0858 21.75 12.5C21.75 12.9142 21.4142 13.25 21 13.25H6C5.58579 13.25 5.25 12.9142 5.25 12.5Z" fill="#FFFFFF"/>
<path fill-rule="evenodd" clip-rule="evenodd" d="M10.25 16.5C10.25 16.0858 10.5858 15.75 11 15.75H17C17.4142 15.75 17.75 16.0858 17.75 16.5C17.75 16.9142 17.4142 17.25 17 17.25H11C10.5858 17.25 10.25 16.9142 10.25 16.5Z" fill="#FFFFFF"/>
</svg>
